<svg width="16" height="16" viewBox="0 0 16 16" fill="none" xmlns="http://www.w3.org/2000/svg">
<g clip-path="url(#clip0_53_6597)">
<path d="M14.8993 7.46928V12.7764C14.8993 13.0579 14.7874 13.3279 14.5884 13.527C14.3894 13.726 14.1193 13.8379 13.8379 13.8379H5.34642L1.10071 14.8993L2.16214 11.715V3.22357C2.16214 2.94206 2.27397 2.67208 2.47302 2.47302C2.67208 2.27397 2.94205 2.16214 3.22357 2.16214H7.99999" stroke="black" stroke-width="1.14" stroke-linecap="round" stroke-linejoin="round"/>
<path d="M8.54043 4.75026C8.17366 4.68537 8.17366 4.14997 8.54043 4.08508C9.86921 3.85002 10.9261 2.82085 11.2145 1.4811L11.2366 1.37841C11.316 1.0098 11.8321 1.0075 11.9147 1.37539L11.9415 1.49507C12.2405 2.8285 13.2977 3.84897 14.6228 4.08339C14.9914 4.1486 14.9914 4.68674 14.6228 4.75196C13.2977 4.98638 12.2405 6.00684 11.9415 7.34027L11.9147 7.45995C11.8321 7.82784 11.316 7.82555 11.2366 7.45693L11.2145 7.35424C10.9261 6.0145 9.86921 4.98532 8.54043 4.75026Z" stroke="black" stroke-width="1.14" stroke-linecap="round" stroke-linejoin="round"/>
</g>
<defs>
<clipPath id="clip0_53_6597">
<rect width="16" height="16" fill="white"/>
</clipPath>
</defs>
</svg>
