<svg width="16" height="16" viewBox="0 0 16 16" fill="none" xmlns="http://www.w3.org/2000/svg">
<g clip-path="url(#clip0_1071_34424)">
<path d="M6.17534 9.30658H1.77086C1.48468 9.30658 1.25269 9.53858 1.25269 9.82475V14.2292C1.25269 14.5154 1.48468 14.7474 1.77086 14.7474H6.17534C6.46152 14.7474 6.69352 14.5154 6.69352 14.2292V9.82475C6.69352 9.53858 6.46152 9.30658 6.17534 9.30658Z" stroke="black" stroke-width="1.14" stroke-linecap="round" stroke-linejoin="round"/>
<path d="M14.2292 9.30658H9.82466C9.53847 9.30658 9.30649 9.53858 9.30649 9.82475V14.2292C9.30649 14.5154 9.53847 14.7474 9.82466 14.7474H14.2292C14.5153 14.7474 14.7473 14.5154 14.7473 14.2292V9.82475C14.7473 9.53858 14.5153 9.30658 14.2292 9.30658Z" stroke="black" stroke-width="1.14" stroke-linecap="round" stroke-linejoin="round"/>
<path d="M6.17534 1.25256H1.77086C1.48468 1.25256 1.25269 1.48456 1.25269 1.77074V6.17522C1.25269 6.4614 1.48468 6.6934 1.77086 6.6934H6.17534C6.46152 6.6934 6.69352 6.4614 6.69352 6.17522V1.77074C6.69352 1.48456 6.46152 1.25256 6.17534 1.25256Z" stroke="black" stroke-width="1.14" stroke-linecap="round" stroke-linejoin="round"/>
<path d="M9.21598 4.37457C8.89692 4.31907 8.89692 3.86105 9.21598 3.80555C10.3718 3.60446 11.2912 2.72406 11.5421 1.57797L11.5613 1.49012C11.6303 1.17479 12.0793 1.17283 12.151 1.48754L12.1744 1.58992C12.4346 2.73061 13.3542 3.60357 14.5069 3.80409C14.8275 3.85988 14.8275 4.32023 14.5069 4.37602C13.3542 4.57656 12.4346 5.44952 12.1744 6.59019L12.151 6.69258C12.0793 7.00729 11.6303 7.00533 11.5613 6.69L11.5421 6.60215C11.2912 5.45606 10.3718 4.57567 9.21598 4.37457Z" stroke="black" stroke-width="1.14" stroke-linecap="round" stroke-linejoin="round"/>
</g>
<defs>
<clipPath id="clip0_1071_34424">
<rect width="16" height="16" fill="white"/>
</clipPath>
</defs>
</svg>
