<svg width="16" height="16" viewBox="0 0 16 16" fill="none" xmlns="http://www.w3.org/2000/svg">
<g clip-path="url(#clip0_1071_34425)">
<path d="M1.18176 7.71642C1.58257 7.64397 1.99542 7.60614 2.41709 7.60614C4.09353 7.60614 5.63031 8.20405 6.82582 9.19828" stroke="black" stroke-width="1.14" stroke-linecap="round" stroke-linejoin="round"/>
<path d="M5.95819 11.8518H2.24319C1.96168 11.8518 1.6917 11.74 1.49265 11.5409C1.29359 11.3419 1.18176 11.0719 1.18176 10.7904V2.29898C1.18176 2.01747 1.29359 1.7475 1.49265 1.54843C1.6917 1.34938 1.96168 1.23755 2.24319 1.23755H10.7346C11.0161 1.23755 11.2861 1.34938 11.4852 1.54843C11.6842 1.7475 11.7961 2.01747 11.7961 2.29898V6.01398" stroke="black" stroke-width="1.14" stroke-linecap="round" stroke-linejoin="round"/>
<path d="M7.28498 6.54468C8.01774 6.54468 8.61176 5.95066 8.61176 5.2179C8.61176 4.48513 8.01774 3.89111 7.28498 3.89111C6.55222 3.89111 5.95819 4.48513 5.95819 5.2179C5.95819 5.95066 6.55222 6.54468 7.28498 6.54468Z" stroke="black" stroke-width="1.14" stroke-linecap="round" stroke-linejoin="round"/>
<path d="M8.36042 11.7818C7.98793 11.7169 7.98793 11.1822 8.36042 11.1174C9.70988 10.8826 10.7832 9.85479 11.0761 8.51675L11.0985 8.41418C11.1791 8.04605 11.7033 8.04375 11.7871 8.41117L11.8144 8.5307C12.1181 9.86243 13.1917 10.8816 14.5375 11.1157C14.9118 11.1808 14.9118 11.7183 14.5375 11.7835C13.1917 12.0175 12.1181 13.0367 11.8144 14.3685L11.7871 14.488C11.7033 14.8554 11.1791 14.8531 11.0985 14.4849L11.0761 14.3824C10.7832 13.0443 9.70988 12.0165 8.36042 11.7818Z" stroke="black" stroke-width="1.14" stroke-linecap="round" stroke-linejoin="round"/>
</g>
<defs>
<clipPath id="clip0_1071_34425">
<rect width="16" height="16" fill="white"/>
</clipPath>
</defs>
</svg>
