<svg width="16" height="16" viewBox="0 0 16 16" fill="none" xmlns="http://www.w3.org/2000/svg">
<g clip-path="url(#clip0_1071_34421)">
<path d="M5.89838 4.26947H2.18338C1.90186 4.26947 1.63189 4.3813 1.43283 4.58035C1.23378 4.77941 1.12195 5.0494 1.12195 5.3309V13.8224C1.12195 14.1039 1.23378 14.3738 1.43283 14.5729C1.63189 14.7719 1.90186 14.8838 2.18338 14.8838H11.7362C12.3224 14.8838 12.7976 14.4085 12.7976 13.8224V9.57661" stroke="black" stroke-width="1.14" stroke-linecap="round" stroke-linejoin="round"/>
<path d="M1.12195 6.92303H8.02123" stroke="black" stroke-width="1.14" stroke-linecap="round" stroke-linejoin="round"/>
<path d="M3.77551 12.2302L5.36766 10.638L3.77551 9.0459" stroke="black" stroke-width="1.14" stroke-linecap="round" stroke-linejoin="round"/>
<path d="M6.95978 12.2302H8.55192" stroke="black" stroke-width="1.14" stroke-linecap="round" stroke-linejoin="round"/>
<path d="M8.4203 4.76117C8.04781 4.69637 8.04781 4.16164 8.4203 4.09684C9.76975 3.86207 10.843 2.83422 11.136 1.49618L11.1584 1.39361C11.239 1.02548 11.7631 1.02319 11.847 1.39061L11.8743 1.51013C12.178 2.84186 13.2516 3.86103 14.5973 4.09514C14.9716 4.16028 14.9716 4.69772 14.5973 4.76285C13.2516 4.99697 12.178 6.01615 11.8743 7.34787L11.847 7.4674C11.7631 7.83482 11.239 7.83253 11.1584 7.46439L11.136 7.36183C10.843 6.02378 9.76975 4.99593 8.4203 4.76117Z" stroke="black" stroke-width="1.14" stroke-linecap="round" stroke-linejoin="round"/>
</g>
<defs>
<clipPath id="clip0_1071_34421">
<rect width="16" height="16" fill="white"/>
</clipPath>
</defs>
</svg>
