<svg width="16" height="16" viewBox="0 0 16 16" fill="none" xmlns="http://www.w3.org/2000/svg">
<g clip-path="url(#clip0_71_12560)">
<path d="M2.73483 14.8445V12.2121H5.36733" stroke="black" stroke-width="1.14" stroke-linecap="round" stroke-linejoin="round"/>
<path d="M14.7283 6.74214C15.3833 10.2254 13.2517 13.6786 9.7715 14.6112C7.10788 15.3249 4.39009 14.3649 2.73483 12.3757" stroke="black" stroke-width="1.14" stroke-linecap="round" stroke-linejoin="round"/>
<path d="M1.27176 9.25782C0.616748 5.77455 2.74836 2.32127 6.22856 1.38876C8.892 0.675091 11.6096 1.63498 13.2649 3.62382" stroke="black" stroke-width="1.14" stroke-linecap="round" stroke-linejoin="round"/>
<path d="M13.2648 1.15565V3.78816H10.6323" stroke="black" stroke-width="1.14" stroke-linecap="round" stroke-linejoin="round"/>
<path d="M4.91084 8.35411C4.53835 8.28931 4.53835 7.75458 4.91084 7.68978C6.26029 7.45501 7.3336 6.42716 7.6265 5.08912L7.64895 4.98655C7.72954 4.61842 8.25372 4.61613 8.33752 4.98354L8.36479 5.10307C8.66853 6.4348 9.74212 7.45396 11.0878 7.68808C11.4622 7.75322 11.4622 8.29067 11.0878 8.35579C9.74212 8.58991 8.66853 9.60909 8.36479 10.9408L8.33752 11.0603C8.25372 11.4278 7.72954 11.4254 7.64895 11.0573L7.6265 10.9548C7.3336 9.61672 6.26029 8.58887 4.91084 8.35411Z" stroke="black" stroke-width="1.14" stroke-linecap="round" stroke-linejoin="round"/>
</g>
<defs>
<clipPath id="clip0_71_12560">
<rect width="16" height="16" fill="white"/>
</clipPath>
</defs>
</svg>
