<svg width="16" height="16" viewBox="0 0 16 16" fill="none" xmlns="http://www.w3.org/2000/svg">
<path fill-rule="evenodd" clip-rule="evenodd" d="M3.14359 1.26181C3.34077 0.345873 4.63855 0.339257 4.84383 1.25441L4.86695 1.3575C5.07517 2.28577 5.80871 2.98843 6.71854 3.14939C7.66527 3.31686 7.66527 4.68317 6.71854 4.85065C5.80871 5.0116 5.07517 5.71425 4.86695 6.64253L4.84383 6.74561C4.63855 7.66078 3.34077 7.65415 3.14359 6.73822L3.12455 6.64976C2.92399 5.71813 2.19144 5.01038 1.28028 4.84919C0.335168 4.68199 0.33516 3.31804 1.28028 3.15084C2.19144 2.98965 2.92399 2.2819 3.12455 1.35028L3.14359 1.26181ZM11.0442 5.42004C10.7892 4.28305 9.18016 4.29105 8.93513 5.42926L8.90277 5.57964C8.5283 7.31909 7.15852 8.64737 5.44614 8.9503C4.27988 9.15662 4.27988 10.8434 5.44614 11.0497C7.15852 11.3527 8.5283 12.6809 8.90277 14.4204L8.93513 14.5708C9.18016 15.7089 10.7892 15.7169 11.0442 14.58L11.0835 14.4047C11.472 12.6725 12.843 11.3545 14.5518 11.0522C15.7208 10.8454 15.7208 9.15462 14.5518 8.94782C12.843 8.64552 11.472 7.32757 11.0835 5.59528L11.0442 5.42004Z" fill="black"/>
</svg>
