<svg width="16" height="16" viewBox="0 0 16 16" fill="none" xmlns="http://www.w3.org/2000/svg">
<path d="M1.85149 4.55106C1.55807 4.49916 1.55807 4.07083 1.85149 4.01893C2.91451 3.83087 3.76 3.00754 3.99074 1.93574L4.00842 1.85358C4.0719 1.55869 4.48482 1.55686 4.55084 1.85117L4.57231 1.94691C4.81159 3.01366 5.65731 3.83004 6.71738 4.01757C7.01229 4.06974 7.01229 4.50025 6.71738 4.55242C5.65731 4.73996 4.81159 5.55633 4.57231 6.62308L4.55084 6.71882C4.48482 7.01313 4.0719 7.0113 4.00842 6.71641L3.99074 6.63426C3.76 5.56246 2.91451 4.73912 1.85149 4.55106Z" stroke="black" stroke-width="1.14" stroke-linecap="round" stroke-linejoin="round"/>
<path d="M5.72053 10.3098C5.22172 10.2216 5.22172 9.49341 5.72053 9.40517C7.52768 9.08548 8.965 7.68582 9.35725 5.86376L9.38732 5.72408C9.49524 5.22278 10.1972 5.21966 10.3094 5.71999L10.3459 5.88276C10.7527 7.69622 12.1904 9.08406 13.9925 9.40286C14.4939 9.49156 14.4939 10.2234 13.9925 10.3121C12.1904 10.6309 10.7527 12.0188 10.3459 13.8322L10.3094 13.995C10.1972 14.4953 9.49524 14.4922 9.38732 13.9909L9.35725 13.8512C8.965 12.0292 7.52768 10.6295 5.72053 10.3098Z" stroke="black" stroke-width="1.14" stroke-linecap="round" stroke-linejoin="round"/>
</svg>
