<svg width="16" height="16" viewBox="0 0 16 16" fill="none" xmlns="http://www.w3.org/2000/svg">
<g clip-path="url(#clip0_1071_34426)">
<path d="M9.49229 9.02987C9.08251 9.496 8.58371 9.87934 8.02249 10.1558V11.748C8.02249 11.8887 7.96658 12.0238 7.86705 12.1232C7.76752 12.2228 7.63253 12.2787 7.49177 12.2787H4.30749C4.16674 12.2787 4.03175 12.2228 3.93222 12.1232C3.83269 12.0238 3.77677 11.8887 3.77677 11.748V10.1558C3.01302 9.77688 2.36463 9.20041 1.8989 8.48624C1.43317 7.77208 1.16708 6.94628 1.12827 6.09457C1.08946 5.24285 1.27934 4.39627 1.67818 3.64271C2.07703 2.88916 2.67031 2.25609 3.39643 1.80925C4.12256 1.36241 4.95506 1.11807 5.8075 1.1016C6.51867 1.08786 7.22209 1.23314 7.86705 1.52466" stroke="black" stroke-width="1.14" stroke-linecap="round" stroke-linejoin="round"/>
<path d="M3.77676 14.8993H8.02248" stroke="black" stroke-width="1.14" stroke-linecap="round" stroke-linejoin="round"/>
<path d="M8.41892 4.7456C8.04644 4.6808 8.04644 4.14607 8.41892 4.08127C9.76837 3.84651 10.8417 2.81866 11.1346 1.48062L11.157 1.37805C11.2376 1.00991 11.7618 1.00762 11.8456 1.37504L11.8728 1.49457C12.1766 2.82629 13.2502 3.84547 14.5959 4.07958C14.9703 4.14472 14.9703 4.68216 14.5959 4.74729C13.2502 4.98141 12.1766 6.00058 11.8728 7.3323L11.8456 7.45183C11.7618 7.81925 11.2376 7.81696 11.157 7.44883L11.1346 7.34626C10.8417 6.00822 9.76837 4.98037 8.41892 4.7456Z" stroke="black" stroke-width="1.14" stroke-linecap="round" stroke-linejoin="round"/>
</g>
<defs>
<clipPath id="clip0_1071_34426">
<rect width="16" height="16" fill="white"/>
</clipPath>
</defs>
</svg>
