<svg width="16" height="16" viewBox="0 0 16 16" fill="none" xmlns="http://www.w3.org/2000/svg">
<g clip-path="url(#clip0_53_655)">
<path d="M7.46929 13.8379C10.9866 13.8379 13.8379 10.9865 13.8379 7.46928C13.8379 3.95201 10.9866 1.10071 7.46929 1.10071C3.95202 1.10071 1.10071 3.95201 1.10071 7.46928C1.10071 10.9865 3.95202 13.8379 7.46929 13.8379Z" stroke="black" stroke-width="1.14" stroke-linecap="round" stroke-linejoin="round"/>
<path d="M11.9697 11.97L14.8993 14.8995" stroke="black" stroke-width="1.14" stroke-linecap="round" stroke-linejoin="round"/>
<path d="M4.30573 7.81517C3.92428 7.74769 3.92428 7.19087 4.30573 7.12339C5.68767 6.87891 6.7868 5.80859 7.08675 4.41524L7.10974 4.30844C7.19226 3.92509 7.72906 3.92271 7.81489 4.30531L7.8428 4.42977C8.15385 5.81654 9.25328 6.87783 10.6314 7.12163C11.0148 7.18945 11.0148 7.74912 10.6314 7.81694C9.25328 8.06073 8.15385 9.12202 7.8428 10.5088L7.81488 10.6333C7.72906 11.0159 7.19226 11.0135 7.10974 10.6301L7.08675 10.5233C6.7868 9.12997 5.68767 8.05965 4.30573 7.81517Z" stroke="black" stroke-width="1.14" stroke-linecap="round" stroke-linejoin="round"/>
</g>
<defs>
<clipPath id="clip0_53_655">
<rect width="16" height="16" fill="white"/>
</clipPath>
</defs>
</svg>
