<svg width="16" height="16" viewBox="0 0 16 16" fill="none" xmlns="http://www.w3.org/2000/svg">
<path d="M4.28501 14.3686C5.75054 14.3686 6.93858 13.1805 6.93858 11.715C6.93858 10.2495 5.75054 9.06142 4.28501 9.06142C2.81949 9.06142 1.63144 10.2495 1.63144 11.715C1.63144 13.1805 2.81949 14.3686 4.28501 14.3686Z" stroke="black" stroke-width="1.14" stroke-linecap="round" stroke-linejoin="round"/>
<path d="M1.63144 11.715V11.4173C1.63144 11.2624 1.64839 11.108 1.682 10.9568L3.56959 2.4626C3.67751 1.97695 4.10825 1.63142 4.60574 1.63142H5.87715C6.46336 1.63142 6.93858 2.10665 6.93858 2.69285V4.285" stroke="black" stroke-width="1.14" stroke-linecap="round" stroke-linejoin="round"/>
<path d="M14.3686 11.715V11.4173C14.3686 11.2624 14.3516 11.108 14.3181 10.9568L12.4304 2.4626C12.3225 1.97695 11.8917 1.63142 11.3942 1.63142H10.1229C9.53666 1.63142 9.06143 2.10665 9.06143 2.69285V4.285" stroke="black" stroke-width="1.14" stroke-linecap="round" stroke-linejoin="round"/>
<path d="M5.34644 6.40785H10.6536" stroke="black" stroke-width="1.14" stroke-linecap="round" stroke-linejoin="round"/>
<path d="M6.93857 8.53072V11.715" stroke="black" stroke-width="1.14" stroke-linecap="round" stroke-linejoin="round"/>
<path d="M11.715 14.3686C13.1805 14.3686 14.3686 13.1805 14.3686 11.715C14.3686 10.2495 13.1805 9.06142 11.715 9.06142C10.2495 9.06142 9.06143 10.2495 9.06143 11.715C9.06143 13.1805 10.2495 14.3686 11.715 14.3686Z" stroke="black" stroke-width="1.14" stroke-linecap="round" stroke-linejoin="round"/>
<path d="M9.06143 8.53072V11.715" stroke="black" stroke-width="1.14" stroke-linecap="round" stroke-linejoin="round"/>
</svg>
