<svg width="16" height="16" viewBox="0 0 16 16" fill="none" xmlns="http://www.w3.org/2000/svg">
<g clip-path="url(#clip0_55_6636)">
<path fill-rule="evenodd" clip-rule="evenodd" d="M4.34535 0.571426C3.54186 0.571426 2.84618 1.12948 2.67189 1.91383L0.639478 11.0597C0.594256 11.2632 0.571442 11.471 0.571442 11.6794V12C0.571442 13.8936 2.10647 15.4286 4.00001 15.4286C5.89356 15.4286 7.42858 13.8936 7.42858 12V8.57143H8.57144V12C8.57144 13.8936 10.1065 15.4286 12 15.4286C13.8936 15.4286 15.4286 13.8936 15.4286 12V11.6794C15.4286 11.471 15.4057 11.2632 15.3606 11.0597L13.3281 1.91383C13.1538 1.12948 12.4582 0.571426 11.6546 0.571426H10.2857C9.33895 0.571426 8.57144 1.33894 8.57144 2.28571V4H7.42858V2.28571C7.42858 1.33894 6.66108 0.571426 5.7143 0.571426H4.34535ZM4.00001 14C5.10458 14 6.00001 13.1046 6.00001 12C6.00001 10.8954 5.10458 10 4.00001 10C2.89544 10 2.00001 10.8954 2.00001 12C2.00001 13.1046 2.89544 14 4.00001 14ZM14 12C14 13.1046 13.1046 14 12 14C10.8954 14 10 13.1046 10 12C10 10.8954 10.8954 10 12 10C13.1046 10 14 10.8954 14 12Z" fill="black"/>
</g>
<defs>
<clipPath id="clip0_55_6636">
<rect width="16" height="16" fill="white"/>
</clipPath>
</defs>
</svg>
