<svg width="16" height="16" viewBox="0 0 16 16" fill="none" xmlns="http://www.w3.org/2000/svg">
<path d="M5.47336 2.09659C6.86862 2.09659 7.99971 3.22768 7.99971 4.62294L7.99965 11.4908C7.99965 13.0876 6.70513 14.3822 5.10827 14.3822C3.51139 14.3822 2.21687 13.0876 2.21687 11.4908C2.21687 11.409 2.22028 11.328 2.22694 11.2479C1.62518 10.6014 1.24551 9.33689 1.24551 8.28181C1.24551 6.84411 1.95046 5.44627 2.9617 4.8968C2.95199 4.80684 2.94702 4.71547 2.94702 4.62294C2.94702 3.22768 4.07811 2.09659 5.47336 2.09659Z" stroke="black" stroke-width="1.14" stroke-linecap="round" stroke-linejoin="round"/>
<path d="M4.29674 6.61389C3.92579 6.52931 3.0852 5.97805 2.95837 4.90332" stroke="black" stroke-width="1.14" stroke-linecap="round" stroke-linejoin="round"/>
<path d="M5.84533 9.44864C7.36053 9.27952 7.96097 7.68048 8.00001 7.03006" stroke="black" stroke-width="1.14" stroke-linecap="round" stroke-linejoin="round"/>
<path d="M3.00013 9.73209C2.62273 10.0301 2.32183 10.7054 2.22433 11.2464" stroke="black" stroke-width="1.14" stroke-linecap="round" stroke-linejoin="round"/>
<path d="M10.5264 2.09659C9.13111 2.09659 8.00003 3.22768 8.00003 4.62294L8.0001 11.4908C8.0001 13.0876 9.29461 14.3822 10.8915 14.3822C12.4884 14.3822 13.7829 13.0876 13.7829 11.4908C13.7829 11.409 13.7795 11.328 13.7728 11.2479C14.3745 10.6014 14.7542 9.33689 14.7542 8.28181C14.7542 6.84411 14.0493 5.44627 13.0381 4.8968C13.0477 4.80684 13.0527 4.71547 13.0527 4.62294C13.0527 3.22768 11.9217 2.09659 10.5264 2.09659Z" stroke="black" stroke-width="1.14" stroke-linecap="round" stroke-linejoin="round"/>
<path d="M11.703 6.61389C12.074 6.52931 12.9145 5.97805 13.0414 4.90332" stroke="black" stroke-width="1.14" stroke-linecap="round" stroke-linejoin="round"/>
<path d="M10.1544 9.44864C8.63921 9.27952 8.03876 7.68048 7.99973 7.03006" stroke="black" stroke-width="1.14" stroke-linecap="round" stroke-linejoin="round"/>
<path d="M12.9996 9.73209C13.377 10.0301 13.6779 10.7054 13.7754 11.2464" stroke="black" stroke-width="1.14" stroke-linecap="round" stroke-linejoin="round"/>
</svg>
