<svg width="16" height="16" viewBox="0 0 16 16" fill="none" xmlns="http://www.w3.org/2000/svg">
<path d="M8 13.8379C10.6379 13.8379 12.7764 11.6994 12.7764 9.06143C12.7764 6.42348 10.6379 4.285 8 4.285C5.36205 4.285 3.22357 6.42348 3.22357 9.06143C3.22357 11.6994 5.36205 13.8379 8 13.8379Z" stroke="black" stroke-width="1.14" stroke-linecap="round" stroke-linejoin="round"/>
<path d="M3.22357 9.06143H1.10072" stroke="black" stroke-width="1.14" stroke-linecap="round" stroke-linejoin="round"/>
<path d="M1.10072 12.7764C1.63035 12.778 2.15405 12.665 2.63589 12.4452C3.11774 12.2252 3.54633 11.9038 3.89227 11.5027" stroke="black" stroke-width="1.14" stroke-linecap="round" stroke-linejoin="round"/>
<path d="M3.89227 6.62017C3.54633 6.21913 3.11774 5.89765 2.63589 5.6778C2.15405 5.45794 1.63035 5.34491 1.10072 5.34645" stroke="black" stroke-width="1.14" stroke-linecap="round" stroke-linejoin="round"/>
<path d="M12.7764 9.06143H14.8993" stroke="black" stroke-width="1.14" stroke-linecap="round" stroke-linejoin="round"/>
<path d="M14.8993 12.7764C14.3696 12.778 13.8459 12.665 13.3641 12.4452C12.8823 12.2252 12.4536 11.9038 12.1077 11.5027" stroke="black" stroke-width="1.14" stroke-linecap="round" stroke-linejoin="round"/>
<path d="M12.1077 6.62017C12.4536 6.21913 12.8823 5.89765 13.3641 5.6778C13.8459 5.45794 14.3696 5.34491 14.8993 5.34645" stroke="black" stroke-width="1.14" stroke-linecap="round" stroke-linejoin="round"/>
<path d="M9.31616 4.46544C9.72231 4.23344 10.0599 3.89822 10.2948 3.49373C10.5296 3.08924 10.6534 2.62987 10.6536 2.16214" stroke="black" stroke-width="1.14" stroke-linecap="round" stroke-linejoin="round"/>
<path d="M5.34643 2.16214C5.34658 2.62987 5.47036 3.08924 5.70522 3.49373C5.94008 3.89822 6.27768 4.23344 6.68383 4.46544" stroke="black" stroke-width="1.14" stroke-linecap="round" stroke-linejoin="round"/>
<path d="M3.34032 8H12.6597" stroke="black" stroke-width="1.14" stroke-linecap="round" stroke-linejoin="round"/>
</svg>
