<svg width="16" height="16" viewBox="0 0 16 16" fill="none" xmlns="http://www.w3.org/2000/svg">
<path d="M4.81571 7.73463C4.66916 7.73463 4.55035 7.61583 4.55035 7.46928C4.55035 7.32272 4.66916 7.20392 4.81571 7.20392" stroke="black" stroke-width="1.14" stroke-linecap="round" stroke-linejoin="round"/>
<path d="M4.8157 7.73463C4.96226 7.73463 5.08106 7.61583 5.08106 7.46928C5.08106 7.32272 4.96226 7.20392 4.8157 7.20392" stroke="black" stroke-width="1.14" stroke-linecap="round" stroke-linejoin="round"/>
<path d="M8.00001 7.73463C7.85346 7.73463 7.73465 7.61583 7.73465 7.46928C7.73465 7.32272 7.85346 7.20392 8.00001 7.20392" stroke="black" stroke-width="1.14" stroke-linecap="round" stroke-linejoin="round"/>
<path d="M8 7.73463C8.14655 7.73463 8.26536 7.61583 8.26536 7.46928C8.26536 7.32272 8.14655 7.20392 8 7.20392" stroke="black" stroke-width="1.14" stroke-linecap="round" stroke-linejoin="round"/>
<path d="M4.81571 11.4496C4.66916 11.4496 4.55035 11.3309 4.55035 11.1843C4.55035 11.0377 4.66916 10.9189 4.81571 10.9189" stroke="black" stroke-width="1.14" stroke-linecap="round" stroke-linejoin="round"/>
<path d="M4.8157 11.4496C4.96226 11.4496 5.08106 11.3309 5.08106 11.1843C5.08106 11.0377 4.96226 10.9189 4.8157 10.9189" stroke="black" stroke-width="1.14" stroke-linecap="round" stroke-linejoin="round"/>
<path d="M8.00001 11.4496C7.85346 11.4496 7.73465 11.3309 7.73465 11.1843C7.73465 11.0377 7.85346 10.9189 8.00001 10.9189" stroke="black" stroke-width="1.14" stroke-linecap="round" stroke-linejoin="round"/>
<path d="M8 11.4496C8.14655 11.4496 8.26536 11.3309 8.26536 11.1843C8.26536 11.0377 8.14655 10.9189 8 10.9189" stroke="black" stroke-width="1.14" stroke-linecap="round" stroke-linejoin="round"/>
<path d="M11.1843 7.73463C11.0378 7.73463 10.9189 7.61583 10.9189 7.46928C10.9189 7.32272 11.0378 7.20392 11.1843 7.20392" stroke="black" stroke-width="1.14" stroke-linecap="round" stroke-linejoin="round"/>
<path d="M11.1843 7.73463C11.3309 7.73463 11.4497 7.61583 11.4497 7.46928C11.4497 7.32272 11.3309 7.20392 11.1843 7.20392" stroke="black" stroke-width="1.14" stroke-linecap="round" stroke-linejoin="round"/>
<path d="M2.69287 3.22357C2.41136 3.22357 2.14138 3.3354 1.94232 3.53445C1.74327 3.73351 1.63144 4.00349 1.63144 4.285V13.3071C1.63144 13.5886 1.74327 13.8587 1.94232 14.0577C2.14138 14.2567 2.41136 14.3686 2.69287 14.3686H13.3072C13.5886 14.3686 13.8587 14.2567 14.0577 14.0577C14.2567 13.8587 14.3686 13.5886 14.3686 13.3071V4.285C14.3686 4.00349 14.2567 3.73351 14.0577 3.53445C13.8587 3.3354 13.5886 3.22357 13.3072 3.22357H2.69287Z" stroke="black" stroke-width="1.14" stroke-linecap="round" stroke-linejoin="round"/>
<path d="M4.285 1.63142V4.81571" stroke="black" stroke-width="1.14" stroke-linecap="round" stroke-linejoin="round"/>
<path d="M11.715 1.63142V4.81571" stroke="black" stroke-width="1.14" stroke-linecap="round" stroke-linejoin="round"/>
</svg>
