<svg width="16" height="16" viewBox="0 0 16 16" fill="none" xmlns="http://www.w3.org/2000/svg">
<g clip-path="url(#clip0_15_5103)">
<path d="M2.16214 2.69286C1.88062 2.69286 1.61065 2.80469 1.41159 3.00374C1.21254 3.2028 1.10071 3.47277 1.10071 3.75428V13.8379C1.10071 14.1193 1.21254 14.3894 1.41159 14.5884C1.61065 14.7874 1.88062 14.8993 2.16214 14.8993H13.8379C14.1193 14.8993 14.3894 14.7874 14.5884 14.5884C14.7874 14.3894 14.8993 14.1193 14.8993 13.8379V3.75428C14.8993 3.47277 14.7874 3.2028 14.5884 3.00374C14.3894 2.80469 14.1193 2.69286 13.8379 2.69286H11.715" stroke="black" stroke-width="1.14" stroke-linecap="round" stroke-linejoin="round"/>
<path d="M4.285 1.10071V4.28499" stroke="black" stroke-width="1.14" stroke-linecap="round" stroke-linejoin="round"/>
<path d="M11.715 1.10071V4.28499" stroke="black" stroke-width="1.14" stroke-linecap="round" stroke-linejoin="round"/>
<path d="M4.285 2.69286H9.59215" stroke="black" stroke-width="1.14" stroke-linecap="round" stroke-linejoin="round"/>
<path d="M8.26399 5.50819L9.15199 7.29454C9.17185 7.33971 9.20334 7.37881 9.24325 7.40783C9.28316 7.43686 9.33006 7.45478 9.37915 7.45975L11.3513 7.75919C11.4077 7.76652 11.4609 7.78977 11.5045 7.82618C11.5482 7.86261 11.5806 7.91071 11.5979 7.96486C11.6152 8.01901 11.6168 8.07699 11.6024 8.13199C11.588 8.187 11.5582 8.23677 11.5166 8.27547L10.0607 9.65911C10.0389 9.70052 10.0276 9.74659 10.0276 9.79334C10.0276 9.84011 10.0389 9.88616 10.0607 9.92758L10.3394 11.8895C10.3513 11.9462 10.3465 12.0051 10.3256 12.0591C10.3047 12.1131 10.2685 12.1599 10.2215 12.1938C10.1745 12.2277 10.1187 12.2472 10.0608 12.2501C10.0029 12.2528 9.94548 12.2387 9.89544 12.2095L8.14008 11.2802C8.09465 11.2597 8.04537 11.2491 7.99552 11.2491C7.94566 11.2491 7.89639 11.2597 7.85096 11.2802L6.09559 12.2095C6.04556 12.2387 5.98811 12.2528 5.93024 12.2501C5.87236 12.2472 5.81654 12.2277 5.76954 12.1938C5.72254 12.1599 5.68638 12.1131 5.66545 12.0591C5.64451 12.0051 5.6397 11.9462 5.6516 11.8895L5.98201 9.92758C5.99622 9.88204 5.99894 9.8337 5.98994 9.78686C5.98093 9.74001 5.96047 9.69612 5.93038 9.65911L4.47446 8.26515C4.43585 8.22603 4.40874 8.17703 4.39612 8.12353C4.3835 8.07003 4.38586 8.01409 4.40291 7.96182C4.41998 7.90957 4.45109 7.86303 4.49286 7.82728C4.53463 7.79154 4.58541 7.76798 4.63967 7.75919L6.61188 7.47006C6.66097 7.4651 6.70788 7.44719 6.74779 7.41816C6.7877 7.38914 6.81919 7.35004 6.83904 7.30485L7.72705 5.51852C7.75082 5.46796 7.78824 5.42504 7.83513 5.39463C7.882 5.36423 7.93645 5.34755 7.99231 5.34648C8.04818 5.3454 8.10322 5.35998 8.15123 5.38856C8.19924 5.41713 8.2383 5.45857 8.26399 5.50819Z" stroke="black" stroke-width="1.14" stroke-linecap="round" stroke-linejoin="round"/>
</g>
<defs>
<clipPath id="clip0_15_5103">
<rect width="16" height="16" fill="white"/>
</clipPath>
</defs>
</svg>
