<svg width="16" height="16" viewBox="0 0 16 16" fill="none" xmlns="http://www.w3.org/2000/svg">
<path d="M14.8993 5.87716C14.8993 5.59564 14.7874 5.32567 14.5884 5.12661C14.3894 4.92756 14.1193 4.81573 13.8379 4.81573H11.715L10.1229 2.69287H5.87714L4.28499 4.81573H2.16214C1.88062 4.81573 1.61065 4.92756 1.41159 5.12661C1.21254 5.32567 1.10071 5.59564 1.10071 5.87716V12.2457C1.10071 12.5272 1.21254 12.7972 1.41159 12.9963C1.61065 13.1953 1.88062 13.3072 2.16214 13.3072H13.8379C14.1193 13.3072 14.3894 13.1953 14.5884 12.9963C14.7874 12.7972 14.8993 12.5272 14.8993 12.2457V5.87716Z" stroke="black" stroke-width="1.14" stroke-linecap="round" stroke-linejoin="round"/>
<path d="M7.99997 10.9189C9.31894 10.9189 10.3882 9.8497 10.3882 8.53073C10.3882 7.21176 9.31894 6.14252 7.99997 6.14252C6.681 6.14252 5.61176 7.21176 5.61176 8.53073C5.61176 9.8497 6.681 10.9189 7.99997 10.9189Z" stroke="black" stroke-width="1.14" stroke-linecap="round" stroke-linejoin="round"/>
</svg>
