<svg width="16" height="16" viewBox="0 0 16 16" fill="none" xmlns="http://www.w3.org/2000/svg">
<g clip-path="url(#clip0_15_5113)">
<path d="M8.00207 8.26535C7.85552 8.26535 7.73671 8.14654 7.73671 7.99999C7.73671 7.85344 7.85552 7.73463 8.00207 7.73463" stroke="black" stroke-width="1.14" stroke-linecap="round" stroke-linejoin="round"/>
<path d="M8.00206 8.26535C8.14861 8.26535 8.26742 8.14654 8.26742 7.99999C8.26742 7.85344 8.14861 7.73463 8.00206 7.73463" stroke="black" stroke-width="1.14" stroke-linecap="round" stroke-linejoin="round"/>
<path d="M5.08314 8.26535C4.93659 8.26535 4.81778 8.14654 4.81778 7.99999C4.81778 7.85344 4.93659 7.73463 5.08314 7.73463" stroke="black" stroke-width="1.14" stroke-linecap="round" stroke-linejoin="round"/>
<path d="M5.08313 8.26535C5.22968 8.26535 5.34849 8.14654 5.34849 7.99999C5.34849 7.85344 5.22968 7.73463 5.08313 7.73463" stroke="black" stroke-width="1.14" stroke-linecap="round" stroke-linejoin="round"/>
<path d="M10.921 8.26535C10.7744 8.26535 10.6556 8.14654 10.6556 7.99999C10.6556 7.85344 10.7744 7.73463 10.921 7.73463" stroke="black" stroke-width="1.14" stroke-linecap="round" stroke-linejoin="round"/>
<path d="M10.921 8.26535C11.0675 8.26535 11.1864 8.14654 11.1864 7.99999C11.1864 7.85344 11.0675 7.73463 10.921 7.73463" stroke="black" stroke-width="1.14" stroke-linecap="round" stroke-linejoin="round"/>
<path d="M7.99803 1.16498C6.76166 1.16536 5.54853 1.5011 4.48787 2.13642C3.42721 2.77175 2.55874 3.68287 1.97496 4.77275C1.39117 5.86262 1.11393 7.09044 1.17278 8.32541C1.23162 9.56039 1.62434 10.7563 2.3091 11.7857L1.1629 14.8353L5.00109 14.1412C5.92532 14.5928 6.93955 14.8301 7.96822 14.8352C8.99688 14.8403 10.0134 14.6131 10.9421 14.1706C11.8707 13.7282 12.6876 13.0818 13.3316 12.2797C13.9756 11.4777 14.4304 10.5405 14.6618 9.53823C14.8933 8.53595 14.8957 7.49433 14.6685 6.49105C14.4414 5.48776 13.9908 4.54867 13.3502 3.74379C12.7097 2.93889 11.8956 2.28898 10.969 1.84247C10.0422 1.39596 9.0267 1.16437 7.99803 1.16498Z" stroke="black" stroke-width="1.14" stroke-linecap="round" stroke-linejoin="round"/>
</g>
<defs>
<clipPath id="clip0_15_5113">
<rect width="16" height="16" fill="white"/>
</clipPath>
</defs>
</svg>
