<svg width="16" height="16" viewBox="0 0 16 16" fill="none" xmlns="http://www.w3.org/2000/svg">
<g clip-path="url(#clip0_53_6577)">
<path fill-rule="evenodd" clip-rule="evenodd" d="M2.85715 0C2.4025 0 1.96646 0.180611 1.64497 0.502103C1.32349 0.823593 1.14287 1.25963 1.14287 1.71429V11.9073L0.0293356 15.2479C-0.036617 15.4457 0.010464 15.6638 0.15217 15.8168C0.293877 15.9698 0.507698 16.0335 0.710032 15.983L5.21321 14.8571H14.2857C14.7403 14.8571 15.1765 14.6766 15.4979 14.3551C15.8194 14.0336 16 13.5975 16 13.1429V1.71429C16 1.25962 15.8194 0.823593 15.4979 0.502103C15.1765 0.180611 14.7403 0 14.2857 0H2.85715ZM4.42857 5.53781C4.42857 5.14331 4.74837 4.82352 5.14286 4.82352H12C12.3945 4.82352 12.7143 5.14331 12.7143 5.53781C12.7143 5.9323 12.3945 6.25209 12 6.25209H5.14286C4.74837 6.25209 4.42857 5.9323 4.42857 5.53781ZM5.14286 8.60505C4.74837 8.60505 4.42857 8.92485 4.42857 9.31934C4.42857 9.71383 4.74837 10.0336 5.14286 10.0336H9.71429C10.1088 10.0336 10.4286 9.71383 10.4286 9.31934C10.4286 8.92485 10.1088 8.60505 9.71429 8.60505H5.14286Z" fill="black"/>
</g>
<defs>
<clipPath id="clip0_53_6577">
<rect width="16" height="16" fill="white"/>
</clipPath>
</defs>
</svg>
