<svg width="16" height="16" viewBox="0 0 16 16" fill="none" xmlns="http://www.w3.org/2000/svg">
<g clip-path="url(#clip0_66_9976)">
<path d="M15.499 8.00243C15.499 8.22455 15.497 8.44667 15.4999 8.6683C15.5009 8.7543 15.4876 8.83538 15.4555 8.9145C15.4373 8.95971 15.4486 9.00688 15.4457 9.05307C15.4397 9.14104 15.4378 9.22704 15.3899 9.30861C15.3593 9.36021 15.3815 9.42606 15.3795 9.48552C15.378 9.52385 15.38 9.5612 15.345 9.58773C15.3381 9.59265 15.3297 9.60248 15.3307 9.60936C15.345 9.71845 15.2887 9.81379 15.2729 9.91649C15.265 9.96711 15.2655 10.0182 15.2231 10.0561C15.2063 10.0708 15.2058 10.0909 15.2053 10.1111C15.2048 10.1627 15.2157 10.2172 15.1614 10.2546C15.1446 10.2659 15.1515 10.2919 15.152 10.3116C15.1535 10.3504 15.152 10.3868 15.1175 10.4138C15.1002 10.4271 15.0972 10.4477 15.0982 10.4683C15.0997 10.4934 15.0958 10.518 15.0814 10.5381C15.0489 10.5833 15.0183 10.6276 15.0301 10.688C15.0336 10.7052 15.0203 10.716 15.0059 10.7244C14.9946 10.7308 14.9778 10.7386 14.9808 10.7524C14.998 10.8325 14.922 10.8831 14.9171 10.9568C14.9161 10.973 14.9097 10.9927 14.8909 11.0006C14.8608 11.0133 14.8554 11.0369 14.8574 11.0659C14.8594 11.0934 14.8564 11.119 14.8278 11.1342C14.8189 11.1391 14.8085 11.1499 14.8075 11.1588C14.7977 11.2487 14.7424 11.3146 14.697 11.3883C14.6723 11.4286 14.658 11.4802 14.6328 11.5254C14.5993 11.5858 14.5761 11.6507 14.5248 11.7028C14.4956 11.7323 14.4922 11.7814 14.4655 11.8202C14.4261 11.8782 14.3989 11.9421 14.3466 11.9942C14.3219 12.0188 14.3081 12.064 14.2923 12.0984C14.2568 12.1775 14.201 12.2453 14.1517 12.3097C14.0865 12.3947 14.0288 12.4876 13.9538 12.5677C13.9014 12.6237 13.8546 12.6915 13.8111 12.7583C13.7786 12.8085 13.7322 12.8497 13.6917 12.8945C13.594 13.0021 13.4933 13.1063 13.404 13.2222C13.3532 13.2881 13.2865 13.3485 13.2194 13.3987C13.1266 13.4684 13.0487 13.552 12.9608 13.6257C12.8508 13.7181 12.7501 13.8203 12.6267 13.8979C12.5699 13.9338 12.526 13.9903 12.4658 14.0252C12.3572 14.0881 12.2664 14.1771 12.1564 14.239C12.0833 14.2803 12.0211 14.3407 11.9466 14.378C11.8208 14.4409 11.7073 14.5245 11.5809 14.5884C11.4862 14.6365 11.3865 14.6778 11.2952 14.7373C11.2493 14.7668 11.1935 14.8134 11.1215 14.811C11.078 14.8095 11.0341 14.8459 10.9991 14.8675C10.9325 14.9088 10.8476 14.9083 10.7913 14.9677C10.7676 14.9933 10.7267 14.9682 10.7025 14.9864C10.628 15.0424 10.5302 15.0356 10.4518 15.0877C10.4069 15.1171 10.3402 15.1284 10.2855 15.1388C10.2001 15.155 10.1251 15.1997 10.0387 15.209C9.99822 15.2135 9.95381 15.2159 9.91975 15.2459C9.91679 15.2488 9.91186 15.2513 9.90791 15.2518C9.78897 15.2601 9.68139 15.3201 9.56245 15.3255C9.50421 15.328 9.44795 15.3289 9.39515 15.3599C9.33642 15.3938 9.26831 15.3786 9.20465 15.383C9.11285 15.3889 9.03044 15.4326 8.93914 15.4385C8.90854 15.4405 8.87745 15.4483 8.84685 15.4464C8.67214 15.4336 8.50139 15.4675 8.33014 15.4901C8.19639 15.5078 8.06314 15.4955 7.9299 15.4995C7.75865 15.5039 7.58937 15.4793 7.42059 15.4518C7.35742 15.4415 7.29178 15.4474 7.22713 15.4469C7.12645 15.4464 7.02824 15.4356 6.932 15.4046C6.89055 15.3913 6.84317 15.3781 6.80172 15.3845C6.67488 15.4036 6.5673 15.325 6.44392 15.3221C6.38272 15.3206 6.31758 15.2813 6.26033 15.2518C6.17199 15.2056 6.07773 15.1673 5.99728 15.1058C5.89167 15.0252 5.79593 14.9348 5.70216 14.841C5.64442 14.7835 5.60642 14.7127 5.55065 14.6547C5.52301 14.6257 5.51018 14.5849 5.48995 14.5505C5.44257 14.4704 5.41395 14.38 5.36262 14.3009C5.35127 14.2832 5.35769 14.2532 5.35818 14.2291C5.35917 14.1903 5.35867 14.154 5.32363 14.1269C5.30636 14.1137 5.30439 14.0935 5.30389 14.0724C5.30291 13.9771 5.29994 13.8827 5.29304 13.7874C5.28465 13.664 5.29353 13.5377 5.3108 13.4168C5.32117 13.3471 5.34189 13.2694 5.36805 13.2021C5.4026 13.1146 5.44603 13.0286 5.48748 12.9431C5.54424 12.8262 5.59507 12.7053 5.65774 12.5918C5.72042 12.4782 5.77323 12.3598 5.83442 12.2458C5.89019 12.1421 5.94497 12.0379 5.99975 11.9337C6.05897 11.8207 6.11227 11.7043 6.17791 11.5952C6.21986 11.5254 6.24848 11.4492 6.28994 11.3824C6.31708 11.3377 6.34077 11.2861 6.37927 11.2448C6.41332 11.2084 6.42023 11.1539 6.44737 11.1092C6.48438 11.0487 6.51992 10.9868 6.56039 10.9283C6.58506 10.8929 6.59049 10.8497 6.61615 10.8109C6.65712 10.7489 6.70597 10.686 6.73312 10.6197C6.75434 10.5676 6.80073 10.5298 6.80764 10.4669C6.81208 10.4256 6.86587 10.3976 6.88611 10.3514C6.91177 10.2939 6.95717 10.2462 6.97988 10.1843C6.99517 10.1421 7.03564 10.1121 7.05982 10.0723C7.07562 10.0462 7.0998 10.0276 7.09684 9.99315C7.09585 9.98185 7.10276 9.96907 7.11461 9.96907C7.12398 9.96907 7.13977 9.97546 7.14224 9.98234C7.15902 10.0251 7.19949 10.0546 7.20591 10.1047C7.21183 10.1484 7.21282 10.1986 7.25921 10.2285C7.2671 10.2335 7.26858 10.2531 7.26809 10.2654C7.26661 10.315 7.30017 10.3593 7.3056 10.3981C7.31645 10.4846 7.37666 10.548 7.38752 10.6295C7.39196 10.6634 7.39344 10.6949 7.42256 10.7185C7.44674 10.7376 7.4423 10.7661 7.44279 10.7927C7.44329 10.832 7.4344 10.8743 7.48326 10.8949C7.4882 10.8969 7.49412 10.9062 7.49313 10.9106C7.46846 11.0109 7.53755 11.0924 7.57308 11.1671C7.61108 11.2472 7.58147 11.3499 7.66093 11.4109C7.66241 11.4124 7.66438 11.4148 7.66438 11.4163C7.65056 11.5106 7.73742 11.5755 7.73693 11.6654C7.73693 11.69 7.74729 11.7072 7.76407 11.7239C7.77345 11.7333 7.78678 11.745 7.78628 11.7559C7.78381 11.8242 7.82231 11.8797 7.83761 11.9401C7.86623 12.0502 7.90571 12.1529 7.95605 12.2532C7.96444 12.2699 7.96444 12.292 7.96395 12.3112C7.96247 12.3505 7.96592 12.3863 8.00047 12.4129C8.0054 12.4168 8.01281 12.4242 8.01182 12.4286C7.99257 12.5279 8.06018 12.605 8.09226 12.6861C8.12335 12.7642 8.112 12.861 8.18406 12.923C8.18554 12.9244 8.18751 12.9269 8.18702 12.9289C8.16086 13.0301 8.26253 13.0974 8.25907 13.1928C8.25808 13.2163 8.26253 13.237 8.28572 13.2493C8.30299 13.2586 8.30941 13.2733 8.31237 13.2925C8.3257 13.381 8.40416 13.4566 8.493 13.4778C8.59417 13.5019 8.69682 13.5127 8.79355 13.4743C8.88386 13.438 8.96875 13.3962 9.01464 13.291C9.06696 13.1721 9.09459 13.0483 9.13358 12.9264C9.1553 12.8576 9.1627 12.7809 9.19132 12.723C9.22686 12.6502 9.20909 12.5687 9.24265 12.5131C9.29496 12.4266 9.27226 12.319 9.34185 12.2438C9.35468 12.2301 9.35567 12.2119 9.35567 12.1937C9.35468 12.1362 9.34629 12.0772 9.40107 12.0355C9.40403 12.033 9.40699 12.0271 9.4065 12.0237C9.38281 11.9234 9.45832 11.8453 9.4672 11.7524C9.47164 11.7043 9.47559 11.6546 9.51507 11.6178C9.53333 11.6006 9.53037 11.577 9.52938 11.5549C9.52741 11.5077 9.52741 11.462 9.57034 11.4281C9.58515 11.4163 9.58268 11.3961 9.58318 11.378C9.58416 11.317 9.57133 11.2531 9.62907 11.2055C9.63894 11.1971 9.635 11.1721 9.63697 11.1544C9.6424 11.1013 9.64832 11.0492 9.68682 11.0064C9.71741 10.9725 9.70063 10.9298 9.7031 10.891C9.70507 10.8595 9.70113 10.829 9.73765 10.8123C9.76282 10.8005 9.7564 10.7745 9.75689 10.7529C9.75838 10.6919 9.74456 10.6281 9.8018 10.5804C9.81167 10.572 9.80773 10.547 9.81069 10.5298C9.81661 10.4973 9.81266 10.457 9.83092 10.434C9.87583 10.376 9.88175 10.3136 9.8783 10.2462C9.87781 10.2398 9.87781 10.232 9.88077 10.2266C9.95233 10.1032 9.9469 9.95433 10.0051 9.83197C10.0471 9.74499 10.0214 9.63933 10.0969 9.5666C10.1093 9.55481 10.1038 9.52434 10.1048 9.50223C10.1063 9.45063 10.0994 9.40149 10.1458 9.35628C10.17 9.33269 10.165 9.27765 10.1695 9.23637C10.1734 9.19952 10.1833 9.16708 10.2099 9.14055C10.2317 9.11893 10.2252 9.09091 10.2252 9.06487C10.2252 9.02457 10.2233 8.98723 10.2627 8.95774C10.2958 8.93317 10.2756 8.8914 10.2785 8.857C10.2825 8.81474 10.2657 8.76658 10.3205 8.74201C10.3333 8.73611 10.3338 8.71891 10.3323 8.70614C10.3239 8.63586 10.3432 8.57493 10.3891 8.52136C10.4049 8.50318 10.3985 8.4791 10.3995 8.45699C10.4009 8.41178 10.3886 8.36411 10.4409 8.33315C10.4611 8.32136 10.4523 8.29187 10.4528 8.27025C10.4542 8.21128 10.4409 8.14936 10.4977 8.10464C10.5046 8.09924 10.5041 8.0845 10.5065 8.07369C10.5214 8.01029 10.5189 7.94248 10.5653 7.88695C10.5791 7.87024 10.5727 7.83584 10.5732 7.8093C10.5737 7.77147 10.5677 7.73264 10.6112 7.71151C10.6161 7.70906 10.623 7.70021 10.622 7.69579C10.5974 7.59013 10.6822 7.50708 10.6803 7.40634C10.6803 7.39946 10.6778 7.3916 10.6808 7.38669C10.7336 7.29872 10.7341 7.19209 10.7844 7.10314C10.7879 7.09724 10.7957 7.09184 10.7953 7.08692C10.7829 6.98962 10.8328 6.90559 10.853 6.81517C10.8594 6.78765 10.8579 6.75669 10.8713 6.73163C10.9038 6.67021 10.9334 6.60927 10.9221 6.53703C10.9211 6.53113 10.9221 6.52131 10.926 6.51787C10.9897 6.46332 10.9734 6.38961 10.9749 6.32032C10.9754 6.3041 10.9783 6.29034 10.9922 6.27904C11.0006 6.27216 11.0129 6.26282 11.0134 6.25447C11.0163 6.14881 11.0849 6.06134 11.0938 5.95864C11.0973 5.91834 11.0953 5.87952 11.1313 5.85053C11.155 5.83136 11.1486 5.80138 11.1481 5.77534C11.1476 5.72865 11.1708 5.68738 11.1797 5.64561C11.2024 5.54093 11.2532 5.4456 11.2675 5.33995C11.2725 5.30309 11.271 5.26525 11.2833 5.22889C11.3036 5.16844 11.2661 5.0048 11.2281 4.95418C11.1935 4.90799 11.1609 4.85983 11.1116 4.82838C10.9305 4.71339 10.7444 4.73845 10.5564 4.80823C10.5233 4.82052 10.4843 4.81905 10.4532 4.83084C10.3422 4.8731 10.2183 4.86573 10.1127 4.92224C10.0915 4.93355 10.0708 4.93551 10.0486 4.93551C9.99625 4.93502 9.94739 4.9478 9.901 4.9704C9.86053 4.99006 9.8176 5.00185 9.77269 5.00136C9.74258 5.00136 9.71544 5.00677 9.68978 5.02249C9.64881 5.04755 9.60489 5.06082 9.55603 5.05542C9.54518 5.05443 9.53136 5.05198 9.52297 5.05738C9.43413 5.11488 9.32359 5.09768 9.23081 5.1424C9.1854 5.16402 9.13556 5.18122 9.08226 5.17532C9.05462 5.17237 9.02994 5.1822 9.00675 5.19743C8.99589 5.20481 8.98306 5.21513 8.97171 5.21513C8.86166 5.21365 8.76591 5.27557 8.65734 5.28294C8.62921 5.28491 8.60009 5.29326 8.57443 5.30555C8.51965 5.33208 8.46437 5.3542 8.40219 5.3483C8.40022 5.3483 8.39726 5.34781 8.39578 5.34879C8.29806 5.4053 8.17961 5.3886 8.07992 5.43774C8.05722 5.44855 8.03501 5.4569 8.00935 5.45494C7.95852 5.451 7.91262 5.46624 7.8687 5.48983C7.83465 5.50801 7.79714 5.51931 7.76013 5.5198C7.7088 5.52079 7.6634 5.53209 7.62243 5.56206C7.61898 5.56452 7.61454 5.56944 7.61108 5.56894C7.50744 5.55469 7.42108 5.62595 7.32188 5.62742C7.24539 5.62841 7.18469 5.67902 7.11115 5.68344C7.0006 5.69082 6.89647 5.73357 6.79283 5.7606C6.69117 5.78664 6.58358 5.80875 6.48142 5.83971C6.37384 5.87215 6.26477 5.90949 6.15027 5.92719C6.05009 5.94291 5.94793 5.9719 5.85022 6.00434C5.81172 6.01711 5.77273 6.02203 5.73523 6.03431C5.61037 6.07559 5.48106 6.10508 5.35423 6.13505C5.24122 6.16159 5.12425 6.1837 5.01469 6.21859C4.90365 6.25349 4.78866 6.26872 4.67762 6.30312C4.56954 6.33653 4.45899 6.37241 4.34499 6.38666C4.31094 6.39108 4.27984 6.39501 4.25122 6.41467C4.22358 6.43383 4.19052 6.4417 4.15647 6.44121C4.14512 6.44071 4.13228 6.43727 4.1234 6.44219C4.01581 6.49723 3.88651 6.47462 3.78139 6.53752C3.75622 6.55227 3.72908 6.54391 3.70342 6.55276C3.57412 6.59649 3.43544 6.6073 3.3086 6.66087C3.26271 6.68003 3.21138 6.65989 3.164 6.67856C3.03273 6.73016 2.89454 6.75866 2.75784 6.79257C2.68381 6.81075 2.62212 6.85842 2.58067 6.91886C2.55846 6.95129 2.53329 6.98766 2.51108 7.01763C2.43607 7.11936 2.4563 7.23238 2.47407 7.33165C2.48986 7.41814 2.53625 7.50954 2.64828 7.54935C2.72724 7.57736 2.80917 7.6093 2.88763 7.63977C2.95525 7.6663 3.02384 7.71397 3.10528 7.70856C3.11959 7.70758 3.13587 7.71446 3.1492 7.72183C3.24001 7.77048 3.3397 7.79653 3.43346 7.83584C3.50749 7.8668 3.58695 7.87663 3.659 7.91742C3.73155 7.9582 3.82384 7.9641 3.89688 8.0039C3.97485 8.04666 4.06763 8.0442 4.13969 8.09875C4.15153 8.10808 4.16683 8.11595 4.18164 8.11791C4.31933 8.13757 4.44123 8.20735 4.57053 8.25109C4.69341 8.29286 4.8163 8.34396 4.93869 8.38966C5.01765 8.41915 5.10155 8.44667 5.18002 8.47714C5.30981 8.52824 5.44356 8.56756 5.57286 8.61916C5.64244 8.64717 5.71055 8.68894 5.79099 8.69729C5.83689 8.70221 5.88427 8.72825 5.92276 8.75577C5.96027 8.7828 5.93411 8.8167 5.90894 8.83931C5.85614 8.88599 5.80086 8.92924 5.74855 8.97691C5.67206 9.04669 5.59112 9.11155 5.50771 9.17249C5.40704 9.24571 5.31426 9.32827 5.21062 9.39854C5.12376 9.45751 5.04035 9.52631 4.953 9.58626C4.84936 9.65801 4.74573 9.73024 4.64159 9.80052C4.54536 9.86538 4.44567 9.92337 4.34844 9.98676C4.23049 10.0634 4.11106 10.1366 3.98867 10.2059C3.92155 10.2443 3.85049 10.2816 3.78929 10.3303C3.74438 10.3656 3.69108 10.3784 3.6437 10.4069C3.47344 10.5086 3.29972 10.6055 3.12255 10.6944C3.00904 10.7509 2.89356 10.804 2.77067 10.8443C2.60041 10.9008 2.42669 10.9352 2.25198 10.9259C2.0911 10.917 1.92922 10.8993 1.77179 10.8438C1.5655 10.7711 1.38093 10.6639 1.20622 10.5386C1.13565 10.4875 1.08284 10.4118 1.02263 10.3465C0.927386 10.2438 0.877047 10.1096 0.787227 10.003C0.800058 9.92337 0.722083 9.8703 0.726031 9.79265C0.728992 9.72877 0.670263 9.68503 0.667796 9.61919C0.661873 9.46832 0.578963 9.32728 0.606106 9.17101C0.60808 9.1607 0.6066 9.14694 0.601171 9.13858C0.538494 9.04177 0.552806 8.93366 0.553793 8.82801C0.55478 8.70958 0.514806 8.59753 0.506909 8.48058C0.505429 8.45846 0.500494 8.43684 0.500494 8.41473C0.5 8.14396 0.500494 7.87319 0.5 7.60193C0.5 7.52625 0.517273 7.45155 0.532572 7.37981C0.553793 7.27809 0.551819 7.17734 0.553793 7.07611C0.555274 7.00732 0.562677 6.94097 0.592288 6.87709C0.621405 6.81419 0.605119 6.74588 0.6066 6.67954C0.607587 6.64121 0.609067 6.60534 0.634237 6.57291C0.67964 6.51344 0.65151 6.43875 0.671744 6.37339C0.67964 6.34833 0.680627 6.32228 0.697407 6.30017C0.705303 6.28985 0.715173 6.27658 0.715173 6.26479C0.712212 6.15569 0.767486 6.05839 0.780811 5.95323C0.781798 5.94684 0.778343 5.93849 0.781305 5.93357C0.83263 5.85347 0.823254 5.75175 0.877047 5.67263C0.883463 5.6633 0.893826 5.65298 0.892839 5.64413C0.881488 5.55617 0.943178 5.48835 0.962425 5.40825C0.979698 5.33798 1.00684 5.25886 1.05175 5.1935C1.05915 5.18269 1.07001 5.17237 1.07248 5.16009C1.09567 5.03035 1.17464 4.92372 1.22202 4.80381C1.27877 4.65983 1.36217 4.52911 1.42979 4.39053C1.46581 4.31682 1.51911 4.24802 1.56057 4.17529C1.64397 4.02983 1.7333 3.88831 1.83003 3.75268C1.89517 3.66127 1.96081 3.56839 2.03237 3.48043C2.09751 3.40033 2.15575 3.31335 2.22632 3.2362C2.32058 3.13349 2.40547 3.02342 2.49924 2.92022C2.56487 2.84798 2.64088 2.78606 2.7001 2.70744C2.73563 2.66026 2.78548 2.62389 2.82841 2.58163C2.92662 2.48532 3.03075 2.39588 3.14031 2.31332C3.24642 2.23322 3.33575 2.13494 3.4458 2.05779C3.56721 1.97277 3.6822 1.87596 3.80903 1.7993C3.89391 1.74819 3.97535 1.68972 4.06122 1.63959C4.12982 1.5993 4.20286 1.56244 4.26899 1.51428C4.32426 1.47349 4.382 1.43221 4.45504 1.416C4.49452 1.40764 4.53746 1.37521 4.56658 1.34966C4.61642 1.30592 4.69391 1.31919 4.72845 1.25678C4.73092 1.25236 4.7398 1.24941 4.74573 1.24842C4.83209 1.23712 4.8997 1.18946 4.96583 1.13835C4.98163 1.12606 4.9989 1.12557 5.01667 1.12655C5.04973 1.12852 5.07836 1.12213 5.10007 1.0951C5.10402 1.09019 5.11093 1.08233 5.11537 1.08282C5.19186 1.09314 5.24122 1.01893 5.31376 1.01893C5.33597 1.01893 5.35078 1.00517 5.36459 0.990923C5.39075 0.963896 5.42234 0.950627 5.46034 0.953084C5.49044 0.95505 5.51808 0.952102 5.53436 0.920651C5.54374 0.90296 5.562 0.900503 5.58076 0.900012C5.63356 0.898537 5.6913 0.915246 5.72684 0.852836C5.73177 0.84399 5.7604 0.84743 5.77767 0.846447C5.79988 0.845465 5.82406 0.850379 5.84281 0.836128C5.90598 0.786495 5.97804 0.772244 6.05651 0.779124C6.06687 0.780106 6.08365 0.778141 6.0876 0.771261C6.12412 0.709343 6.18383 0.728508 6.23713 0.727034C6.28106 0.725559 6.32547 0.733913 6.35607 0.687229C6.37038 0.665115 6.40147 0.673961 6.42566 0.673961C6.50215 0.673961 6.57667 0.667572 6.63984 0.617448C6.65712 0.603689 6.67834 0.608111 6.69808 0.60762C6.80369 0.605163 6.91226 0.623837 7.00949 0.559953C7.02232 0.551599 7.04403 0.554547 7.0618 0.554547C7.13533 0.554056 7.20887 0.551599 7.2824 0.554547C7.38752 0.55897 7.49017 0.549633 7.59085 0.516708C7.63527 0.501966 7.68215 0.5 7.72953 0.5C7.90127 0.501474 8.07302 0.500491 8.24476 0.500491C8.3405 0.500491 8.43526 0.502457 8.5236 0.548159C8.53988 0.556513 8.56308 0.553073 8.58282 0.553564C8.68991 0.554056 8.797 0.555038 8.9041 0.553564C8.96924 0.552581 9.0334 0.55209 9.08818 0.596809C9.11088 0.614991 9.14 0.606637 9.16615 0.607128C9.26535 0.608603 9.36603 0.595826 9.45782 0.654304C9.48398 0.671012 9.52198 0.671995 9.55505 0.672978C9.60933 0.673961 9.65967 0.674944 9.70409 0.71524C9.7337 0.741776 9.77713 0.726051 9.81464 0.726542C9.86053 0.727034 9.90396 0.728508 9.93801 0.764873C9.94098 0.767821 9.94542 0.772735 9.94887 0.772244C10.0436 0.769295 10.1256 0.807626 10.2104 0.843499C10.2479 0.859224 10.2978 0.846447 10.3299 0.886744C10.3437 0.903943 10.3664 0.900995 10.3866 0.900012C10.4301 0.897555 10.472 0.899029 10.5011 0.938342C10.5026 0.940308 10.5046 0.942273 10.5061 0.942273C10.5919 0.937851 10.6561 0.995346 10.7321 1.01795C10.7617 1.0268 10.7948 1.02041 10.8071 1.05874C10.8086 1.06365 10.818 1.07102 10.8219 1.07004C10.8999 1.04744 10.9482 1.12606 11.0193 1.12754C11.0435 1.12803 11.0578 1.14916 11.078 1.15751C11.1476 1.187 11.2083 1.23565 11.2868 1.24941C11.3283 1.25678 11.3648 1.29118 11.3988 1.31231C11.4511 1.34474 11.5158 1.35506 11.5617 1.40273C11.5903 1.43221 11.6382 1.43713 11.6757 1.46219C11.7374 1.50347 11.8015 1.5531 11.8657 1.57915C11.9545 1.61502 12.0271 1.6735 12.1055 1.72018C12.1959 1.77375 12.2995 1.82043 12.3646 1.90692C12.3952 1.94722 12.4382 1.94132 12.4712 1.96638C12.5428 2.02093 12.604 2.08629 12.6785 2.13838C12.8744 2.27499 13.0363 2.4519 13.2184 2.60522C13.3601 2.72464 13.4726 2.8696 13.5969 3.00425C13.6621 3.07452 13.7262 3.14725 13.7953 3.21507C13.8457 3.2647 13.8832 3.33006 13.9237 3.38903C13.9681 3.45389 14.0312 3.50107 14.0688 3.57134C14.1146 3.65783 14.1763 3.73695 14.2351 3.81361C14.2889 3.88388 14.3274 3.96349 14.3841 4.03229C14.4122 4.0662 14.4443 4.11288 14.4571 4.16399C14.467 4.20379 14.5006 4.23475 14.5238 4.2662C14.5598 4.31534 14.5707 4.37579 14.6136 4.42198C14.6407 4.45147 14.6541 4.49766 14.6728 4.53599C14.7108 4.61363 14.7616 4.68784 14.7893 4.76696C14.81 4.82592 14.8569 4.87359 14.8608 4.93944C14.8623 4.96254 14.8737 4.98563 14.8974 4.99989C14.9151 5.0107 14.9255 5.02888 14.9235 5.05099C14.9206 5.08687 14.9299 5.11684 14.9591 5.13945C14.9625 5.1419 14.9674 5.14682 14.9669 5.14977C14.9556 5.22839 15.0173 5.28392 15.0375 5.35321C15.0617 5.43675 15.0898 5.52423 15.1313 5.60334C15.1343 5.60924 15.1436 5.61415 15.1431 5.61907C15.1318 5.70605 15.1979 5.77239 15.2053 5.85446C15.2068 5.87166 15.2083 5.89082 15.2157 5.90605C15.2522 5.97731 15.2843 6.04955 15.2734 6.1326C15.3623 6.22253 15.3272 6.34931 15.3598 6.45644C15.3968 6.57782 15.4269 6.7105 15.4417 6.83974C15.4565 6.96653 15.4373 7.09675 15.4955 7.21764C15.5034 7.23386 15.4985 7.25695 15.4985 7.2771C15.499 7.51839 15.4985 7.76016 15.499 8.00243Z" fill="black"/>
</g>
<defs>
<clipPath id="clip0_66_9976">
<rect width="16" height="16" fill="white"/>
</clipPath>
</defs>
</svg>
