<svg width="16" height="16" viewBox="0 0 16 16" fill="none" xmlns="http://www.w3.org/2000/svg">
<path d="M6.12131 2.95821L6.57773 1.78002C6.6547 1.58054 6.79013 1.40896 6.96626 1.28774C7.14241 1.16653 7.35104 1.10134 7.56486 1.10071H8.43523C8.64904 1.10134 8.85769 1.16653 9.03382 1.28774C9.20997 1.40896 9.34538 1.58054 9.42236 1.78002L9.87877 2.95821L11.4284 3.84981L12.6809 3.65875C12.8895 3.63044 13.1018 3.66477 13.2908 3.75738C13.4797 3.84999 13.6369 3.99669 13.7423 4.17885L14.1669 4.92185C14.2757 5.10691 14.3259 5.32061 14.3107 5.53474C14.2955 5.74887 14.2158 5.95338 14.082 6.12127L13.3071 7.10839V8.89159L14.1032 9.87872C14.2371 10.0466 14.3168 10.2511 14.332 10.4652C14.3471 10.6794 14.2969 10.8931 14.1881 11.0781L13.7636 11.8211C13.6582 12.0033 13.501 12.15 13.312 12.2426C13.123 12.3352 12.9107 12.3696 12.7021 12.3412L11.4496 12.1502L9.9 13.0418L9.44359 14.22C9.36661 14.4194 9.23119 14.591 9.05505 14.7123C8.87892 14.8335 8.67027 14.8986 8.45646 14.8993H7.56486C7.35104 14.8986 7.14241 14.8335 6.96626 14.7123C6.79013 14.591 6.6547 14.4194 6.57773 14.22L6.12131 13.0418L4.57163 12.1502L3.31914 12.3412C3.11059 12.3696 2.89833 12.3352 2.70933 12.2426C2.52034 12.15 2.36315 12.0033 2.25771 11.8211L1.83314 11.0781C1.72435 10.8931 1.67423 10.6794 1.68938 10.4652C1.70454 10.2511 1.78427 10.0466 1.91806 9.87872L2.6929 8.89159V7.10839L1.89683 6.12127C1.76305 5.95338 1.68331 5.74887 1.66815 5.53474C1.653 5.32061 1.70312 5.10691 1.81191 4.92185L2.23649 4.17885C2.34192 3.99669 2.49912 3.84999 2.6881 3.75738C2.8771 3.66477 3.08936 3.63044 3.29791 3.65875L4.5504 3.84981L6.12131 2.95821ZM5.87719 7.99999C5.87719 8.41985 6.00169 8.83029 6.23495 9.17939C6.46822 9.52849 6.79976 9.80058 7.18766 9.96126C7.57557 10.1219 8.0024 10.164 8.41419 10.0821C8.82598 10.0002 9.20424 9.79797 9.50114 9.50108C9.79802 9.2042 10.0002 8.82593 10.0821 8.41414C10.164 8.00235 10.122 7.57552 9.96131 7.18761C9.80064 6.79971 9.52854 6.46816 9.17944 6.2349C8.83033 6.00164 8.4199 5.87714 8.00004 5.87714C7.43703 5.87714 6.89707 6.10079 6.49896 6.49891C6.10085 6.89702 5.87719 7.43698 5.87719 7.99999Z" stroke="black" stroke-width="1.14" stroke-linecap="round" stroke-linejoin="round"/>
</svg>
