<svg width="24" height="24" viewBox="0 0 24 24" fill="none" xmlns="http://www.w3.org/2000/svg">
<g clip-path="url(#clip0_1532_34793)">
<path d="M20.831 0.187317H7.46822C5.72527 0.187317 4.29919 1.61339 4.29919 3.35635V4.43466H16.3869C18.1298 4.43466 19.5559 5.86074 19.5559 7.60369V15.5043H20.831C22.5739 15.5043 24 14.0783 24 12.3353V3.35635C24 1.61335 22.5739 0.187317 20.831 0.187317Z" fill="#6C7ED6"/>
<path d="M18.5841 4.28976H5.22136C4.90092 4.28976 4.59131 4.33833 4.29919 4.42786V4.43466H16.3869C18.1298 4.43466 19.5559 5.86073 19.5559 7.60369V15.5043H20.8309C21.1514 15.5043 21.461 15.4558 21.7531 15.3662V7.4588C21.7531 5.71584 20.3271 4.28976 18.5841 4.28976Z" fill="#4F67D2"/>
<path d="M16.5318 4.28976H3.16903C1.42608 4.28976 0 5.71584 0 7.4588V16.4377C0 18.1807 1.42608 19.6067 3.16903 19.6067H11.1892C11.533 19.6067 11.7897 19.9267 11.711 20.2614C11.4983 21.1669 11.1729 22.1244 10.6918 23.106C10.4757 23.5469 10.9672 23.9951 11.3847 23.7367C12.5918 22.9897 14.3092 21.7394 15.7555 19.9718C15.9456 19.7395 16.2315 19.6067 16.5318 19.6067C18.2747 19.6067 19.7008 18.1806 19.7008 16.4377V7.45875C19.7008 5.71584 18.2747 4.28976 16.5318 4.28976Z" fill="#60B8FE"/>
<path d="M13.7633 20.2614C13.842 19.9267 13.5853 19.6068 13.2415 19.6068H11.1892C11.533 19.6068 11.7896 19.9267 11.711 20.2614C11.4983 21.1669 11.1729 22.1245 10.6918 23.1061C10.4757 23.5469 10.9672 23.9951 11.3847 23.7367C11.8478 23.4501 12.3862 23.0891 12.9554 22.6535C13.3225 21.8303 13.5835 21.0272 13.7633 20.2614Z" fill="#23A8FE"/>
<path d="M2.05233 16.4377V7.4588C2.05233 5.71584 3.47841 4.28976 5.22136 4.28976H3.16903C1.42608 4.28976 0 5.71584 0 7.4588V16.4377C0 18.1807 1.42608 19.6067 3.16903 19.6067H5.22136C3.47836 19.6067 2.05233 18.1807 2.05233 16.4377Z" fill="#23A8FE"/>
<path d="M4.39284 13.2577C4.97362 13.2577 5.44444 12.7869 5.44444 12.2061C5.44444 11.6253 4.97362 11.1545 4.39284 11.1545C3.81206 11.1545 3.34125 11.6253 3.34125 12.2061C3.34125 12.7869 3.81206 13.2577 4.39284 13.2577Z" fill="#DFEBFA"/>
<path d="M7.78941 13.2577C8.37018 13.2577 8.841 12.7869 8.841 12.2061C8.841 11.6253 8.37018 11.1545 7.78941 11.1545C7.20863 11.1545 6.73781 11.6253 6.73781 12.2061C6.73781 12.7869 7.20863 13.2577 7.78941 13.2577Z" fill="#DFEBFA"/>
<path d="M11.1859 13.2577C11.7667 13.2577 12.2375 12.7869 12.2375 12.2061C12.2375 11.6253 11.7667 11.1545 11.1859 11.1545C10.6051 11.1545 10.1343 11.6253 10.1343 12.2061C10.1343 12.7869 10.6051 13.2577 11.1859 13.2577Z" fill="#DFEBFA"/>
<path d="M14.5825 13.2577C15.1633 13.2577 15.6341 12.7869 15.6341 12.2061C15.6341 11.6253 15.1633 11.1545 14.5825 11.1545C14.0017 11.1545 13.5309 11.6253 13.5309 12.2061C13.5309 12.7869 14.0017 13.2577 14.5825 13.2577Z" fill="#DFEBFA"/>
<path d="M4.39284 12.2061C4.39284 11.8169 4.60444 11.4774 4.91864 11.2956C4.76391 11.206 4.58447 11.1545 4.39284 11.1545C3.81206 11.1545 3.34125 11.6253 3.34125 12.2061C3.34125 12.7869 3.81206 13.2577 4.39284 13.2577C4.58447 13.2577 4.76395 13.2062 4.91864 13.1167C4.60439 12.9348 4.39284 12.5953 4.39284 12.2061Z" fill="#B1DBFC"/>
<path d="M7.78941 12.2061C7.78941 11.8169 8.001 11.4774 8.3152 11.2956C8.16047 11.206 7.98103 11.1545 7.78941 11.1545C7.20863 11.1545 6.73781 11.6253 6.73781 12.2061C6.73781 12.7869 7.20863 13.2577 7.78941 13.2577C7.98103 13.2577 8.16047 13.2062 8.3152 13.1167C8.00095 12.9348 7.78941 12.5953 7.78941 12.2061Z" fill="#B1DBFC"/>
<path d="M11.1859 12.2061C11.1859 11.8169 11.3975 11.4774 11.7117 11.2956C11.557 11.206 11.3775 11.1545 11.1859 11.1545C10.6051 11.1545 10.1343 11.6253 10.1343 12.2061C10.1343 12.7869 10.6051 13.2577 11.1859 13.2577C11.3775 13.2577 11.557 13.2062 11.7117 13.1167C11.3975 12.9348 11.1859 12.5953 11.1859 12.2061Z" fill="#B1DBFC"/>
<path d="M14.5825 12.2061C14.5825 11.8169 14.794 11.4774 15.1083 11.2956C14.9535 11.206 14.7741 11.1545 14.5825 11.1545C14.0017 11.1545 13.5309 11.6253 13.5309 12.2061C13.5309 12.7869 14.0017 13.2577 14.5825 13.2577C14.7741 13.2577 14.9536 13.2062 15.1083 13.1167C14.794 12.9348 14.5825 12.5953 14.5825 12.2061Z" fill="#B1DBFC"/>
</g>
<defs>
<clipPath id="clip0_1532_34793">
<rect width="24" height="24" fill="white"/>
</clipPath>
</defs>
</svg>
