<svg width="16" height="16" viewBox="0 0 16 16" fill="none" xmlns="http://www.w3.org/2000/svg">
<g clip-path="url(#clip0_17_4666)">
<path d="M4.01964 6.93857C5.63172 6.93857 6.93857 5.63171 6.93857 4.01964C6.93857 2.40756 5.63172 1.10071 4.01964 1.10071C2.40757 1.10071 1.10071 2.40756 1.10071 4.01964C1.10071 5.63171 2.40757 6.93857 4.01964 6.93857Z" stroke="black" stroke-width="1.14" stroke-linecap="round" stroke-linejoin="round"/>
<path d="M11.9804 6.93857C13.5925 6.93857 14.8993 5.63171 14.8993 4.01964C14.8993 2.40756 13.5925 1.10071 11.9804 1.10071C10.3683 1.10071 9.06143 2.40756 9.06143 4.01964C9.06143 5.63171 10.3683 6.93857 11.9804 6.93857Z" stroke="black" stroke-width="1.14" stroke-linecap="round" stroke-linejoin="round"/>
<path d="M4.01964 14.8993C5.63172 14.8993 6.93857 13.5925 6.93857 11.9804C6.93857 10.3683 5.63172 9.06143 4.01964 9.06143C2.40757 9.06143 1.10071 10.3683 1.10071 11.9804C1.10071 13.5925 2.40757 14.8993 4.01964 14.8993Z" stroke="black" stroke-width="1.14" stroke-linecap="round" stroke-linejoin="round"/>
<path d="M11.9804 14.8993C13.5925 14.8993 14.8993 13.5925 14.8993 11.9804C14.8993 10.3683 13.5925 9.06143 11.9804 9.06143C10.3683 9.06143 9.06143 10.3683 9.06143 11.9804C9.06143 13.5925 10.3683 14.8993 11.9804 14.8993Z" stroke="black" stroke-width="1.14" stroke-linecap="round" stroke-linejoin="round"/>
</g>
<defs>
<clipPath id="clip0_17_4666">
<rect width="16" height="16" fill="white"/>
</clipPath>
</defs>
</svg>
