<svg width="16" height="16" viewBox="0 0 16 16" fill="none" xmlns="http://www.w3.org/2000/svg">
<path d="M1.62723 2.79407H4.24254V9.43877H1.62723C1.48759 9.43877 1.35366 9.3833 1.25492 9.28455C1.15618 9.18581 1.10071 9.05189 1.10071 8.91225V3.32059C1.10071 3.18095 1.15618 3.04702 1.25492 2.94828C1.35366 2.84954 1.48759 2.79407 1.62723 2.79407Z" stroke="black" stroke-width="1.14" stroke-linecap="round" stroke-linejoin="round"/>
<path d="M4.24256 9.4387L6.90377 13.7141C7.00743 13.8831 7.15309 14.0223 7.32656 14.1183C7.50003 14.2142 7.69539 14.2636 7.89363 14.2616C8.04975 14.2673 8.20542 14.2415 8.35144 14.186C8.49745 14.1304 8.63085 14.0462 8.74375 13.9382C8.85664 13.8302 8.94674 13.7007 9.00873 13.5573C9.07071 13.4139 9.10333 13.2595 9.10463 13.1032V10.0389H13.7275C13.8983 10.0334 14.066 9.99176 14.2196 9.91677C14.3732 9.84178 14.5091 9.73512 14.6185 9.60383C14.728 9.47254 14.8083 9.31956 14.8544 9.15498C14.9004 8.99041 14.9112 8.81793 14.8858 8.64891L14.0434 3.21521C14.0075 2.92482 13.8667 2.65755 13.6476 2.46364C13.4284 2.26973 13.1461 2.16252 12.8535 2.16217H5.9455C5.61665 2.16088 5.29208 2.23661 4.99776 2.38331L4.23956 2.7624" stroke="black" stroke-width="1.14" stroke-linecap="round" stroke-linejoin="round"/>
</svg>
