<svg width="16" height="16" viewBox="0 0 16 16" fill="none" xmlns="http://www.w3.org/2000/svg">
<g clip-path="url(#clip0_56_552)">
<path fill-rule="evenodd" clip-rule="evenodd" d="M1.71688 7.99999C1.71688 4.52992 4.52993 1.71687 8 1.71687C8.89557 1.71687 9.74737 1.90424 10.5183 2.24191V2.55786C10.5183 3.06706 10.3161 3.5554 9.95601 3.91546C9.59596 4.27552 9.10761 4.4778 8.59841 4.4778C8.34085 4.47765 8.0859 4.52935 7.84872 4.62977C7.61156 4.7302 7.39701 4.87733 7.21788 5.06239C7.03873 5.24745 6.89866 5.46666 6.80599 5.70697C6.71333 5.94729 6.66997 6.20379 6.67848 6.46121V8.04793C6.67848 8.30007 6.62881 8.54972 6.53233 8.78266C6.43584 9.0156 6.29442 9.22726 6.11614 9.40553C5.93785 9.58382 5.72621 9.72524 5.49327 9.82172C5.26033 9.91822 5.01066 9.96787 4.75854 9.96787H2.03121C1.82725 9.34886 1.71688 8.68731 1.71688 7.99999ZM11.1018 13.4654C12.4541 12.6962 13.4929 11.4398 13.9796 9.93498L13.8241 9.82103C13.3231 9.56209 12.7687 9.42348 12.2047 9.41619H10.0649C9.62649 9.456 9.21881 9.6583 8.92196 9.98335C8.62509 10.3084 8.46049 10.7327 8.46049 11.1729C8.46049 11.6131 8.62509 12.0374 8.92196 12.3624C9.21881 12.6875 9.62649 12.8898 10.0649 12.9296C10.2294 12.9277 10.3926 12.9584 10.5452 13.0201C10.6977 13.0817 10.8365 13.173 10.9535 13.2887C11.0084 13.343 11.0581 13.4022 11.1018 13.4654ZM8 0.00257874C3.58316 0.00257874 0.00259399 3.58314 0.00259399 7.99999C0.00259399 12.4168 3.58316 15.9974 8 15.9974C12.4168 15.9974 15.9974 12.4168 15.9974 7.99999C15.9974 3.58314 12.4168 0.00257874 8 0.00257874Z" fill="black"/>
</g>
<defs>
<clipPath id="clip0_56_552">
<rect width="16" height="16" fill="white"/>
</clipPath>
</defs>
</svg>
