<svg width="16" height="16" viewBox="0 0 16 16" fill="none" xmlns="http://www.w3.org/2000/svg">
<g clip-path="url(#clip0_15_5100)">
<path d="M7.99999 14.8993C11.8104 14.8993 14.8993 11.8104 14.8993 7.99999C14.8993 4.18962 11.8104 1.10071 7.99999 1.10071C4.18962 1.10071 1.10071 4.18962 1.10071 7.99999C1.10071 11.8104 4.18962 14.8993 7.99999 14.8993Z" stroke="black" stroke-width="1.14" stroke-linecap="round" stroke-linejoin="round"/>
<path d="M1.63141 10.6535H3.48891C3.98155 10.6535 4.45401 10.4578 4.80236 10.1095C5.15071 9.76112 5.34641 9.28865 5.34641 8.79602V7.20388C5.34641 6.71123 5.5421 6.23877 5.89045 5.89042C6.23881 5.54207 6.71127 5.34638 7.20391 5.34638C7.69655 5.34638 8.16901 5.15067 8.51736 4.80232C8.86571 4.45397 9.06141 3.98152 9.06141 3.48888V1.17496" stroke="black" stroke-width="1.14" stroke-linecap="round" stroke-linejoin="round"/>
<path d="M14.8993 7.89386C14.3678 7.61811 13.7785 7.47259 13.1798 7.46928H10.9189C10.4263 7.46928 9.95383 7.66498 9.60548 8.01333C9.25713 8.36168 9.06143 8.83414 9.06143 9.32678C9.06143 9.81942 9.25713 10.2919 9.60548 10.6402C9.95383 10.9886 10.4263 11.1843 10.9189 11.1843C11.2708 11.1843 11.6083 11.3241 11.8571 11.5729C12.1059 11.8217 12.2457 12.1592 12.2457 12.5111V13.4345" stroke="black" stroke-width="1.14" stroke-linecap="round" stroke-linejoin="round"/>
</g>
<defs>
<clipPath id="clip0_15_5100">
<rect width="16" height="16" fill="white"/>
</clipPath>
</defs>
</svg>
