<svg width="24" height="24" viewBox="0 0 24 24" fill="none" xmlns="http://www.w3.org/2000/svg">
<g clip-path="url(#clip0_1580_53697)">
<path d="M2.54114 11.7047C2.54114 11.7047 3.48933 13.0977 5.47664 14.2768C5.47664 14.2768 4.03734 2.11261 13.4153 0C11.0126 8.81817 16.4715 11.305 18.4614 6.64622C21.7845 11.083 19.2614 14.9538 19.2614 14.9538C20.624 15.1501 21.7686 13.6615 21.7686 13.6615C21.7788 13.8449 21.7845 14.0295 21.7845 14.2155C21.7846 19.6193 17.4039 24 12 24C6.59611 24 2.21541 19.6193 2.21541 14.2154C2.21541 13.3474 2.32903 12.506 2.54114 11.7047Z" fill="#FF6536"/>
<path d="M21.7687 13.6615C21.7687 13.6615 20.6241 15.1501 19.2615 14.9538C19.2615 14.9538 21.7846 11.083 18.4615 6.64622C16.4716 11.305 11.0127 8.81817 13.4153 0C12.9131 0.113156 12.4421 0.255328 12 0.422719V24C17.4039 24 21.7846 19.6193 21.7846 14.2154C21.7846 14.0295 21.7789 13.8449 21.7687 13.6615Z" fill="#FF421D"/>
<path d="M7.70887 19.7089C7.70887 22.0788 9.63009 24 12 24C14.3699 24 16.2911 22.0788 16.2911 19.7089C16.2911 18.4404 15.7408 17.3005 14.8657 16.5149C13.2067 18.7689 10.8424 15.3498 12.6849 12.8529C12.6849 12.8529 7.70887 13.4765 7.70887 19.7089Z" fill="#FBBF00"/>
<path d="M16.2911 19.7089C16.2911 18.4404 15.7408 17.3005 14.8657 16.5149C13.2067 18.7689 10.8424 15.3498 12.6849 12.8529C12.6849 12.8529 12.4146 12.8869 12 13.0177V24C14.3699 24 16.2911 22.0788 16.2911 19.7089Z" fill="#FFA900"/>
</g>
<defs>
<clipPath id="clip0_1580_53697">
<rect width="24" height="24" fill="white"/>
</clipPath>
</defs>
</svg>
