<svg width="24" height="24" viewBox="0 0 24 24" fill="none" xmlns="http://www.w3.org/2000/svg">
<g clip-path="url(#clip0_1580_53694)">
<path d="M18.7534 8.34686H5.24653C5.24653 8.34686 4.38253 11.3771 4.35028 15.7559C4.34906 15.9195 4.42711 16.0731 4.56065 16.1677C5.24559 16.6527 7.61789 18.0849 12 18.3005C16.3821 18.0849 18.7544 16.6527 19.4393 16.1677C19.5728 16.0731 19.6509 15.9195 19.6497 15.7559C19.6173 11.3771 18.7534 8.34686 18.7534 8.34686Z" fill="#685E67"/>
<path d="M19.6495 15.756C19.6509 15.9197 19.5727 16.0732 19.4394 16.1679C19.1898 16.3446 18.7165 16.6469 18.0038 16.9705C18.1279 16.8652 18.1994 16.7073 18.1979 16.5388C18.167 12.1236 17.4002 8.87183 17.2693 8.34692H18.7532C18.7532 8.34692 19.6171 11.3771 19.6495 15.756Z" fill="#554E55"/>
<path d="M19.2922 11.0603L12.3124 13.3685C12.1095 13.4357 11.8903 13.4357 11.6875 13.3685L4.70775 11.0603C4.95787 9.35956 5.24667 8.34692 5.24667 8.34692H18.7532C18.7532 8.34692 19.042 9.35956 19.2922 11.0603Z" fill="#554E55"/>
<path d="M11.6873 3.6129L0.341528 7.36492C-0.113863 7.51553 -0.113863 8.15973 0.341528 8.3103L11.6873 12.0623C11.8903 12.1294 12.1095 12.1294 12.3126 12.0623L23.6583 8.3103C24.1137 8.15969 24.1137 7.51548 23.6583 7.36492L12.3126 3.6129C12.1095 3.54578 11.8903 3.54578 11.6873 3.6129Z" fill="#918291"/>
<path d="M23.6585 8.3102L12.3124 12.0623C12.1095 12.1294 11.8903 12.1294 11.6875 12.0623L9.97373 11.4954C10.1094 11.506 10.2465 11.4896 10.3774 11.4461L22.7926 7.34055C22.896 7.30675 22.9588 7.22852 22.9805 7.14062L23.6585 7.36469C24.1139 7.51534 24.1139 8.15955 23.6585 8.3102Z" fill="#7A6E79"/>
<path d="M13.2688 7.26058C13.2688 7.74142 12.6986 7.93211 11.9952 7.93211C11.2918 7.93211 10.7216 7.74142 10.7216 7.26058C10.7216 6.77974 11.2918 6.38992 11.9952 6.38992C12.6986 6.38992 13.2688 6.77974 13.2688 7.26058Z" fill="#685E67"/>
<path d="M13.269 7.26038C13.269 7.74137 12.6987 7.9321 11.9951 7.9321C11.9261 7.9321 11.8585 7.93018 11.7923 7.92629C12.068 7.82148 12.2433 7.64377 12.2433 7.37724C12.2433 6.9721 11.8391 6.63212 11.2915 6.53457C11.4929 6.4433 11.7348 6.38968 11.9951 6.38968C12.6987 6.38973 13.269 6.77991 13.269 7.26038Z" fill="#554E55"/>
<path d="M6.71123 13.7789C6.51117 13.7789 6.34908 13.6167 6.34908 13.4167V10.4168C6.34908 10.2952 6.41006 10.1818 6.5114 10.1147L10.6956 7.34588C10.8623 7.23544 11.0871 7.28124 11.1975 7.44807C11.3078 7.61485 11.2621 7.83957 11.0953 7.94996L7.07343 10.6114V13.4168C7.07339 13.6167 6.91129 13.7789 6.71123 13.7789Z" fill="#433F43"/>
<path d="M6.45548 12.9486C6.10898 13.6951 5.53116 15.5419 5.51442 19.5774C5.51395 19.6879 5.58881 19.7844 5.69583 19.812C5.89744 19.864 6.25523 19.9346 6.71119 19.9346C7.16714 19.9346 7.52498 19.864 7.72655 19.812C7.83356 19.7844 7.90842 19.688 7.90795 19.5774C7.89122 15.5419 7.31339 13.6951 6.96689 12.9486H6.45548Z" fill="#FDD330"/>
<path d="M7.9079 19.5776C7.90837 19.6877 7.83351 19.7843 7.72683 19.8118C7.53993 19.8601 7.21978 19.9238 6.81225 19.933C6.86779 19.8881 6.90206 19.82 6.90159 19.7452C6.88809 16.4875 6.50901 14.6559 6.18112 13.6785C6.27867 13.3637 6.37331 13.1251 6.45539 12.9484H6.96679C7.31343 13.695 7.89145 15.542 7.9079 19.5776Z" fill="#E7B729"/>
<path d="M6.71123 13.9053C7.26708 13.9053 7.71769 13.4547 7.71769 12.8988C7.71769 12.343 7.26708 11.8924 6.71123 11.8924C6.15539 11.8924 5.70478 12.343 5.70478 12.8988C5.70478 13.4547 6.15539 13.9053 6.71123 13.9053Z" fill="#FDDD45"/>
<path d="M23.5253 16.103C24.0049 15.9285 24.1441 15.1011 23.8362 14.2551C23.5282 13.4091 22.8898 12.8648 22.4102 13.0394L10.591 17.3412L11.7061 20.4049L23.5253 16.103Z" fill="#F2EFF2"/>
<path d="M23.8359 14.2551C24.1439 15.1013 24.0051 15.9284 23.5254 16.103L11.706 20.4049L11.2883 19.2573L22.8654 15.0435C23.3292 14.8747 23.4744 14.0963 23.2058 13.2809C23.4568 13.5014 23.6858 13.8426 23.8359 14.2551Z" fill="#E1DDE1"/>
<path d="M11.7091 20.4114C12.1889 20.2369 12.3282 19.4093 12.0203 18.563C11.7124 17.7168 11.0739 17.1722 10.5941 17.3468C10.1144 17.5213 9.97504 18.3489 10.2829 19.1952C10.5908 20.0414 11.2294 20.586 11.7091 20.4114Z" fill="#B5ADB6"/>
<path d="M11.7059 20.4048C11.4823 20.4864 11.2235 20.4111 10.9806 20.2218C11.2945 20.0093 11.3689 19.3888 11.1385 18.7553C10.9362 18.1989 10.5605 17.802 10.2162 17.7392C10.2959 17.5441 10.4224 17.4027 10.5909 17.3413C11.0705 17.1665 11.7093 17.7107 12.0169 18.5568C12.325 19.4028 12.1859 20.2305 11.7059 20.4048Z" fill="#A69CA7"/>
<path d="M17.304 18.3674C17.7837 18.1928 17.9228 17.3655 17.6149 16.5195C17.307 15.6735 16.6686 15.1292 16.189 15.3037L17.8343 14.7049C18.314 14.5303 18.9524 15.0746 19.2603 15.9206C19.5682 16.7666 19.429 17.5939 18.9494 17.7685C18.9494 17.7685 20.5294 17.5412 21.1712 18.7618C21.2387 18.8904 21.1752 19.0493 21.0387 19.0989L19.3766 19.7039C19.2512 19.7495 19.1124 19.6851 19.0672 19.5596C18.8894 19.0656 18.3671 17.9805 17.304 18.3674Z" fill="#FC9744"/>
<path d="M19.3727 16.3148C19.5159 17.0104 19.3535 17.6214 18.9496 17.7684L17.3042 18.3673C17.7085 18.2202 17.871 17.6091 17.7274 16.9137L19.3727 16.3148Z" fill="#FB7722"/>
</g>
<defs>
<clipPath id="clip0_1580_53694">
<rect width="24" height="24" fill="white"/>
</clipPath>
</defs>
</svg>
