<svg width="16" height="16" viewBox="0 0 16 16" fill="none" xmlns="http://www.w3.org/2000/svg">
<g clip-path="url(#clip0_742_20509)">
<path d="M9.06142 1.10071H2.16214C1.57593 1.10071 1.10071 1.57593 1.10071 2.16214V13.8379C1.10071 14.4241 1.57593 14.8993 2.16214 14.8993H11.715C12.3012 14.8993 12.7764 14.4241 12.7764 13.8379V9.06142" stroke="black" stroke-width="1.14" stroke-linecap="round" stroke-linejoin="round"/>
<path d="M1.10071 11.715H12.7764" stroke="black" stroke-width="1.14" stroke-linecap="round" stroke-linejoin="round"/>
<path d="M4.28497 3.75427H6.40783" stroke="black" stroke-width="1.14" stroke-linecap="round" stroke-linejoin="round"/>
<path d="M4.28497 6.40785H5.3464" stroke="black" stroke-width="1.14" stroke-linecap="round" stroke-linejoin="round"/>
<path d="M10.1167 8.53686L6.93237 9.11004L7.46309 5.88329L11.9529 1.41468C12.0516 1.31519 12.169 1.23623 12.2984 1.18234C12.4277 1.12845 12.5664 1.10071 12.7065 1.10071C12.8467 1.10071 12.9854 1.12845 13.1147 1.18234C13.2441 1.23623 13.3615 1.31519 13.4601 1.41468L14.5852 2.53979C14.6848 2.63846 14.7638 2.75586 14.8176 2.8852C14.8715 3.01455 14.8992 3.15329 14.8992 3.29341C14.8992 3.43353 14.8715 3.57227 14.8176 3.7016C14.7638 3.83095 14.6848 3.94835 14.5852 4.04702L10.1167 8.53686Z" stroke="black" stroke-width="1.14" stroke-linecap="round" stroke-linejoin="round"/>
</g>
<defs>
<clipPath id="clip0_742_20509">
<rect width="16" height="16" fill="white"/>
</clipPath>
</defs>
</svg>
