<svg width="16" height="16" viewBox="0 0 16 16" fill="none" xmlns="http://www.w3.org/2000/svg">
<g clip-path="url(#clip0_53_660)">
<path fill-rule="evenodd" clip-rule="evenodd" d="M4.59863 1.24014C5.71924 1.32134 6.8869 1.8676 8.00466 2.97317C9.12214 1.86791 10.2888 1.32269 11.4083 1.24329C12.6719 1.15368 13.7889 1.66437 14.5971 2.47009C16.1861 4.05425 16.685 6.92079 14.7134 8.89249C14.7067 8.89914 14.6999 8.90563 14.6929 8.91194L8.38828 14.6227C8.17055 14.8199 7.83877 14.8199 7.62104 14.6227L1.31638 8.91194C1.30941 8.90563 1.3026 8.89914 1.29594 8.89249C-0.686033 6.91052 -0.189722 4.04365 1.40445 2.46072C2.21461 1.65626 3.33391 1.1485 4.59863 1.24014Z" fill="black"/>
</g>
<defs>
<clipPath id="clip0_53_660">
<rect width="16" height="16" fill="white"/>
</clipPath>
</defs>
</svg>
