<svg width="16" height="16" viewBox="0 0 16 16" fill="none" xmlns="http://www.w3.org/2000/svg">
<g clip-path="url(#clip0_17_4659)">
<path d="M14.8993 7.93631C14.9003 7.78898 14.8706 7.64306 14.8121 7.50783C14.7537 7.3726 14.6677 7.25103 14.5596 7.15085L8.00001 1.10071L1.44039 7.15085C1.33236 7.25103 1.24637 7.3726 1.1879 7.50783C1.12942 7.64306 1.09974 7.78898 1.10073 7.93631V13.8379C1.10073 14.1193 1.21256 14.3894 1.41162 14.5884C1.61067 14.7874 1.88066 14.8993 2.16216 14.8993H13.8379C14.1193 14.8993 14.3894 14.7874 14.5884 14.5884C14.7875 14.3894 14.8993 14.1193 14.8993 13.8379V7.93631Z" stroke="black" stroke-width="1.14" stroke-linecap="round" stroke-linejoin="round"/>
<path d="M8 14.8993V10.6536" stroke="black" stroke-width="1.14" stroke-linecap="round" stroke-linejoin="round"/>
</g>
<defs>
<clipPath id="clip0_17_4659">
<rect width="16" height="16" fill="white"/>
</clipPath>
</defs>
</svg>
