<svg width="16" height="16" viewBox="0 0 16 16" fill="none" xmlns="http://www.w3.org/2000/svg">
<path fill-rule="evenodd" clip-rule="evenodd" d="M4.57143 8C4.57143 9.26237 3.54808 10.2857 2.28571 10.2857C1.02335 10.2857 0 9.26237 0 8C0 6.73764 1.02335 5.71429 2.28571 5.71429C3.54808 5.71429 4.57143 6.73764 4.57143 8ZM10.2857 8C10.2857 9.26237 9.26237 10.2857 8 10.2857C6.73763 10.2857 5.71429 9.26237 5.71429 8C5.71429 6.73764 6.73763 5.71429 8 5.71429C9.26237 5.71429 10.2857 6.73764 10.2857 8ZM13.7143 10.2857C14.9767 10.2857 16 9.26237 16 8C16 6.73764 14.9767 5.71429 13.7143 5.71429C12.4519 5.71429 11.4286 6.73764 11.4286 8C11.4286 9.26237 12.4519 10.2857 13.7143 10.2857Z" fill="black"/>
</svg>
