<svg width="16" height="16" viewBox="0 0 16 16" fill="none" xmlns="http://www.w3.org/2000/svg">
<path d="M4.07143 7.99999C4.07143 8.98622 3.27194 9.78571 2.28571 9.78571C1.29949 9.78571 0.5 8.98622 0.5 7.99999C0.5 7.01377 1.29949 6.21428 2.28571 6.21428C3.27194 6.21428 4.07143 7.01377 4.07143 7.99999ZM9.78571 7.99999C9.78571 8.98622 8.98622 9.78571 8 9.78571C7.01378 9.78571 6.21429 8.98622 6.21429 7.99999C6.21429 7.01377 7.01378 6.21428 8 6.21428C8.98622 6.21428 9.78571 7.01377 9.78571 7.99999ZM15.5 7.99999C15.5 8.98622 14.7005 9.78571 13.7143 9.78571C12.728 9.78571 11.9286 8.98622 11.9286 7.99999C11.9286 7.01377 12.728 6.21428 13.7143 6.21428C14.7005 6.21428 15.5 7.01377 15.5 7.99999Z" stroke="black"/>
</svg>
