<svg width="24" height="24" viewBox="0 0 24 24" fill="none" xmlns="http://www.w3.org/2000/svg">
<path d="M12 3C10.22 3 8.47991 3.52784 6.99987 4.51677C5.51983 5.50571 4.36627 6.91131 3.68508 8.55585C3.0039 10.2004 2.82567 12.01 3.17293 13.7558C3.5202 15.5016 4.37737 17.1053 5.63604 18.364C6.89471 19.6226 8.49836 20.4798 10.2442 20.8271C11.99 21.1743 13.7996 20.9961 15.4442 20.3149C17.0887 19.6337 18.4943 18.4802 19.4832 17.0001C20.4722 15.5201 21 13.78 21 12C20.9973 9.61387 20.0482 7.32625 18.361 5.639C16.6738 3.95175 14.3861 3.00268 12 3ZM11.8125 6.75C11.9979 6.75 12.1792 6.80498 12.3333 6.908C12.4875 7.01101 12.6077 7.15743 12.6786 7.32873C12.7496 7.50004 12.7682 7.68854 12.732 7.8704C12.6958 8.05226 12.6065 8.2193 12.4754 8.35041C12.3443 8.48152 12.1773 8.57081 11.9954 8.60699C11.8135 8.64316 11.625 8.62459 11.4537 8.55364C11.2824 8.48268 11.136 8.36252 11.033 8.20835C10.93 8.05418 10.875 7.87292 10.875 7.6875C10.875 7.43886 10.9738 7.2004 11.1496 7.02459C11.3254 6.84877 11.5639 6.75 11.8125 6.75ZM12.75 17.25H12C11.8011 17.25 11.6103 17.171 11.4697 17.0303C11.329 16.8897 11.25 16.6989 11.25 16.5V10.875C11.0511 10.875 10.8603 10.796 10.7197 10.6553C10.579 10.5147 10.5 10.3239 10.5 10.125C10.5 9.92609 10.579 9.73532 10.7197 9.59467C10.8603 9.45402 11.0511 9.375 11.25 9.375H12C12.1989 9.375 12.3897 9.45402 12.5303 9.59467C12.671 9.73532 12.75 9.92609 12.75 10.125V15.75C12.9489 15.75 13.1397 15.829 13.2803 15.9697C13.421 16.1103 13.5 16.3011 13.5 16.5C13.5 16.6989 13.421 16.8897 13.2803 17.0303C13.1397 17.171 12.9489 17.25 12.75 17.25Z" fill="url(#paint0_linear_1580_53696)"/>
<defs>
<linearGradient id="paint0_linear_1580_53696" x1="5.63888" y1="5.63887" x2="18.3611" y2="18.3611" gradientUnits="userSpaceOnUse">
<stop stop-color="#00D2FF"/>
<stop offset="1" stop-color="#3A7BD5"/>
</linearGradient>
</defs>
</svg>
