<svg width="16" height="16" viewBox="0 0 16 16" fill="none" xmlns="http://www.w3.org/2000/svg">
<g clip-path="url(#clip0_93_2199)">
<path d="M7.99999 14.8993C11.8104 14.8993 14.8993 11.8104 14.8993 7.99999C14.8993 4.18962 11.8104 1.10071 7.99999 1.10071C4.18962 1.10071 1.10071 4.18962 1.10071 7.99999C1.10071 11.8104 4.18962 14.8993 7.99999 14.8993Z" stroke="black" stroke-width="1.14" stroke-linecap="round" stroke-linejoin="round"/>
<path d="M6.40784 11.1843H9.59212" stroke="black" stroke-width="1.14" stroke-linecap="round" stroke-linejoin="round"/>
<path d="M8 11.1843V7.46928H6.93857" stroke="black" stroke-width="1.14" stroke-linecap="round" stroke-linejoin="round"/>
<path d="M8.00001 5.08107C7.85346 5.08107 7.73465 4.96226 7.73465 4.81571C7.73465 4.66916 7.85346 4.55035 8.00001 4.55035" stroke="black" stroke-width="1.14" stroke-linecap="round" stroke-linejoin="round"/>
<path d="M8 5.08107C8.14655 5.08107 8.26536 4.96226 8.26536 4.81571C8.26536 4.66916 8.14655 4.55035 8 4.55035" stroke="black" stroke-width="1.14" stroke-linecap="round" stroke-linejoin="round"/>
</g>
<defs>
<clipPath id="clip0_93_2199">
<rect width="16" height="16" fill="white"/>
</clipPath>
</defs>
</svg>
