<svg width="16" height="16" viewBox="0 0 16 16" fill="none" xmlns="http://www.w3.org/2000/svg">
<path d="M10.3882 7.20392C9.50891 7.20392 8.79608 6.4911 8.79608 5.61178C8.79608 4.73246 9.50891 4.01964 10.3882 4.01964C11.2675 4.01964 11.9804 4.73246 11.9804 5.61178C11.9804 6.4911 11.2675 7.20392 10.3882 7.20392Z" stroke="black" stroke-width="1.14" stroke-linecap="round" stroke-linejoin="round"/>
<path d="M13.3888 14.3686H2.61121C2.07009 14.3686 1.63142 13.9299 1.63142 13.3888V2.61121C1.63142 2.07009 2.07009 1.63142 2.61121 1.63142H13.3888C13.9299 1.63142 14.3686 2.07009 14.3686 2.61121V13.3888C14.3686 13.9299 13.9299 14.3686 13.3888 14.3686Z" stroke="black" stroke-width="1.14" stroke-linecap="round" stroke-linejoin="round"/>
<path d="M13.399 14.3686L5.72198 6.6916L1.63142 10.7822" stroke="black" stroke-width="1.14" stroke-linecap="round" stroke-linejoin="round"/>
</svg>
