<svg width="16" height="16" viewBox="0 0 16 16" fill="none" xmlns="http://www.w3.org/2000/svg">
<g clip-path="url(#clip0_53_6576)">
<path fill-rule="evenodd" clip-rule="evenodd" d="M5.04084 14.813C5.42481 14.996 5.84477 15.091 6.27012 15.091H12.3799C13.7875 15.091 14.9854 14.0658 15.2027 12.6752L15.9181 8.10001C16.1347 6.71372 15.0629 5.46124 13.6598 5.46124H9.90692V2.76682C9.90692 1.74099 9.07532 0.909393 8.0495 0.909393C7.37715 0.909393 6.75729 1.27273 6.42882 1.85938L4.05472 6.09946C3.91144 6.35535 3.8362 6.6437 3.8362 6.93697V13.1569C3.8362 13.8178 4.21623 14.42 4.81292 14.7043L5.04084 14.813ZM1.19272 6.30888C0.890717 6.30888 0.601086 6.42884 0.38754 6.64239C0.173993 6.85594 0.0540237 7.14556 0.0540237 7.44756L0.0540243 13.2905C0.0540243 13.5926 0.173993 13.8822 0.38754 14.0958C0.601085 14.3093 0.890716 14.4293 1.19272 14.4293L1.76023 14.429C2.07572 14.4289 2.3314 14.173 2.3314 13.8576V6.88007C2.3314 6.72847 2.27116 6.58308 2.16395 6.47592C2.05673 6.36874 1.91132 6.30857 1.75973 6.30864L1.19272 6.30888Z" fill="black"/>
</g>
<defs>
<clipPath id="clip0_53_6576">
<rect width="16" height="16" fill="white"/>
</clipPath>
</defs>
</svg>
