<svg width="16" height="16" viewBox="0 0 16 16" fill="none" xmlns="http://www.w3.org/2000/svg">
<path d="M1.68036 6.7411H4.17608V13.3858H1.68036C1.54072 13.3858 1.4068 13.3304 1.30805 13.2316C1.20931 13.1329 1.15384 12.9989 1.15384 12.8593V7.26763C1.15384 7.12798 1.20931 6.99406 1.30805 6.89532C1.4068 6.79658 1.54072 6.7411 1.68036 6.7411Z" stroke="black" stroke-width="1.14" stroke-linecap="round" stroke-linejoin="round"/>
<path d="M4.17603 6.74069L6.85076 2.46533C6.95442 2.29635 7.10008 2.15709 7.27355 2.06113C7.44702 1.96517 7.64239 1.91578 7.84063 1.91775C7.99675 1.91212 8.15242 1.93784 8.29843 1.99339C8.44445 2.04895 8.57784 2.1332 8.69074 2.24119C8.80364 2.34918 8.89374 2.4787 8.95572 2.62211C9.01771 2.76551 9.05031 2.91988 9.05162 3.0761V6.14046H13.6745C13.8453 6.146 14.013 6.18763 14.1666 6.26263C14.3202 6.33762 14.4561 6.44426 14.5656 6.57556C14.675 6.70685 14.7554 6.85982 14.8014 7.0244C14.8475 7.18899 14.8582 7.36146 14.8328 7.53047L13.9904 12.9642C13.9545 13.2546 13.8137 13.5219 13.5946 13.7158C13.3755 13.9097 13.0931 14.0169 12.8004 14.0172H5.89249C5.56365 14.0185 5.23907 13.9428 4.94475 13.796L4.18656 13.417" stroke="black" stroke-width="1.14" stroke-linecap="round" stroke-linejoin="round"/>
<path d="M4.17603 6.74084V13.3856" stroke="black" stroke-width="1.14" stroke-linecap="round" stroke-linejoin="round"/>
</svg>
