<svg width="16" height="16" viewBox="0 0 16 16" fill="none" xmlns="http://www.w3.org/2000/svg">
<g clip-path="url(#clip0_485_10418)">
<path d="M12.7764 5.87714C12.7764 9.06142 8 12.7764 8 12.7764C8 12.7764 3.22357 9.06142 3.22357 5.87714C3.22357 3.27557 5.39844 1.10071 8 1.10071C10.6016 1.10071 12.7764 3.27557 12.7764 5.87714Z" stroke="black" stroke-width="1.14" stroke-linecap="round" stroke-linejoin="round"/>
<path d="M7.99998 7.46929C8.8793 7.46929 9.59212 6.75647 9.59212 5.87715C9.59212 4.99783 8.8793 4.285 7.99998 4.285C7.12066 4.285 6.40784 4.99783 6.40784 5.87715C6.40784 6.75647 7.12066 7.46929 7.99998 7.46929Z" stroke="black" stroke-width="1.14" stroke-linecap="round" stroke-linejoin="round"/>
<path d="M12.3278 11.1843H13.3071L14.8993 14.8993H1.10071L2.69285 11.1843H3.67223" stroke="black" stroke-width="1.14" stroke-linecap="round" stroke-linejoin="round"/>
</g>
<defs>
<clipPath id="clip0_485_10418">
<rect width="16" height="16" fill="white"/>
</clipPath>
</defs>
</svg>
