<svg width="16" height="16" viewBox="0 0 16 16" fill="none" xmlns="http://www.w3.org/2000/svg">
<g clip-path="url(#clip0_314_33956)">
<path d="M10.6536 11.715V13.8379C10.6536 14.1193 10.5417 14.3894 10.3427 14.5884C10.1436 14.7874 9.87365 14.8993 9.59214 14.8993H2.16214C1.88062 14.8993 1.61065 14.7874 1.41159 14.5884C1.21254 14.3894 1.10071 14.1193 1.10071 13.8379V2.16214C1.10071 1.88062 1.21254 1.61065 1.41159 1.41159C1.61065 1.21254 1.88062 1.10071 2.16214 1.10071H9.59214C9.87365 1.10071 10.1436 1.21254 10.3427 1.41159C10.5417 1.61065 10.6536 1.88062 10.6536 2.16214V4.28499" stroke="black" stroke-width="1.14" stroke-linecap="round" stroke-linejoin="round"/>
<path d="M7.46927 8H14.8993" stroke="black" stroke-width="1.14" stroke-linecap="round" stroke-linejoin="round"/>
<path d="M12.7764 5.87714L14.8993 7.99999L12.7764 10.1229" stroke="black" stroke-width="1.14" stroke-linecap="round" stroke-linejoin="round"/>
</g>
<defs>
<clipPath id="clip0_314_33956">
<rect width="16" height="16" fill="white"/>
</clipPath>
</defs>
</svg>
