<svg width="16" height="16" viewBox="0 0 16 16" fill="none" xmlns="http://www.w3.org/2000/svg">
<g clip-path="url(#clip0_1071_34427)">
<path d="M13.9864 2.55477L13.0948 5.18711C13.0641 5.248 13.048 5.31526 13.048 5.38348C13.048 5.4517 13.0641 5.51897 13.0948 5.57984L14.7613 7.80884C14.8092 7.87265 14.8381 7.94864 14.8448 8.02813C14.8515 8.10763 14.8357 8.1874 14.7991 8.2583C14.7626 8.32921 14.7067 8.38837 14.6382 8.42902C14.5695 8.46968 14.4908 8.49017 14.411 8.48816H11.6301C11.5619 8.49016 11.4951 8.50741 11.4345 8.53864C11.3738 8.56987 11.321 8.61428 11.2798 8.6686L9.73015 10.8976C9.68469 10.9628 9.62188 11.0139 9.54883 11.0451C9.47578 11.0763 9.39543 11.0864 9.31693 11.0743C9.23842 11.0621 9.1649 11.0281 9.10473 10.9763C9.04455 10.9244 9.00013 10.8567 8.97654 10.7808L8.14861 8.12727C8.12973 8.06169 8.0945 8.00196 8.04624 7.95369C7.99796 7.90542 7.93824 7.87019 7.87265 7.8513L5.21908 7.02339C5.14322 6.99978 5.07551 6.95537 5.02364 6.8952C4.97177 6.83502 4.93782 6.7615 4.92566 6.683C4.9135 6.60449 4.92361 6.52414 4.95484 6.4511C4.98607 6.37805 5.03716 6.31522 5.10232 6.26977L7.37377 4.66701C7.4281 4.62582 7.47251 4.57297 7.50374 4.51235C7.53497 4.45175 7.55222 4.3849 7.55421 4.31674V1.5358C7.55719 1.46276 7.57895 1.39172 7.61743 1.32956C7.65591 1.2674 7.70978 1.21623 7.77383 1.181C7.83789 1.14577 7.90995 1.12768 7.98305 1.12847C8.05614 1.12927 8.1278 1.14892 8.19107 1.18553L10.4201 2.85197C10.4767 2.89128 10.5418 2.91658 10.61 2.9258C10.6783 2.93504 10.7478 2.92792 10.8128 2.90504L13.4451 2.01344C13.5206 1.98692 13.6021 1.98226 13.6801 2.00001C13.7581 2.01776 13.8296 2.05721 13.8861 2.11378C13.9427 2.17036 13.9822 2.24179 13.9999 2.3198C14.0177 2.39783 14.013 2.47928 13.9864 2.55477Z" stroke="black" stroke-width="1.14" stroke-linecap="round" stroke-linejoin="round"/>
<path d="M8.04245 7.95752L1.10071 14.8993" stroke="black" stroke-width="1.14" stroke-linecap="round" stroke-linejoin="round"/>
</g>
<defs>
<clipPath id="clip0_1071_34427">
<rect width="16" height="16" fill="white"/>
</clipPath>
</defs>
</svg>
