<svg width="16" height="16" viewBox="0 0 16 16" fill="none" xmlns="http://www.w3.org/2000/svg">
<g clip-path="url(#clip0_53_6586)">
<path fill-rule="evenodd" clip-rule="evenodd" d="M2.06471 0.752294C2.42946 -0.250766 3.84806 -0.250763 4.21281 0.752294L4.56279 1.71473L5.52522 2.06471C6.52829 2.42946 6.52829 3.84806 5.52522 4.21281L4.56279 4.56279L4.21281 5.52522C3.84806 6.52829 2.42946 6.52829 2.06471 5.52522L1.71473 4.56279L0.752294 4.21281C-0.250765 3.84806 -0.250765 2.42946 0.752294 2.06471L1.71473 1.71473L2.06471 0.752294ZM12.0256 2.37391C11.6608 1.37086 10.2422 1.37085 9.87745 2.37391L9.01822 4.7368L6.65534 5.59603C5.65227 5.96078 5.65227 7.37938 6.65534 7.74413L9.01822 8.60336L9.87745 10.9663C10.2422 11.9693 11.6608 11.9693 12.0256 10.9663L12.8848 8.60336L15.2477 7.74413C16.2507 7.37938 16.2507 5.96078 15.2477 5.59603L12.8848 4.7368L12.0256 2.37391ZM5.19251 8.51537C4.82776 7.51231 3.40917 7.51232 3.04441 8.51537L2.43318 10.1963L0.752294 10.8075C-0.250765 11.1722 -0.250765 12.5909 0.752294 12.9555L2.43318 13.5669L3.04441 15.2477C3.40917 16.2507 4.82776 16.2507 5.19251 15.2477L5.80375 13.5669L7.48463 12.9555C8.48769 12.5909 8.48769 11.1722 7.48463 10.8075L5.80375 10.1963L5.19251 8.51537Z" fill="black"/>
</g>
<defs>
<clipPath id="clip0_53_6586">
<rect width="16" height="16" fill="white"/>
</clipPath>
</defs>
</svg>
