<svg width="16" height="16" viewBox="0 0 16 16" fill="none" xmlns="http://www.w3.org/2000/svg">
<g clip-path="url(#clip0_17_4662)">
<path d="M6.93251 6.26606L9.35979 5.38342L10.2424 2.95613C10.4118 2.49033 11.0706 2.49034 11.24 2.95613L12.1226 5.38342L14.5499 6.26606C15.0157 6.43545 15.0157 7.09421 14.5499 7.26359L12.1226 8.14623L11.24 10.5735C11.0706 11.0393 10.4118 11.0393 10.2424 10.5735L9.35979 8.14623L6.93251 7.26359C6.46671 7.09421 6.46671 6.43545 6.93251 6.26606Z" stroke="black" stroke-width="1.14" stroke-linecap="round" stroke-linejoin="round"/>
<path d="M1.45005 11.1062L3.24393 10.4539L3.89626 8.66002C4.06564 8.19422 4.72439 8.19422 4.89378 8.66002L5.5461 10.4539L7.33998 11.1062C7.80577 11.2756 7.80577 11.9344 7.33998 12.1037L5.5461 12.756L4.89378 14.55C4.72439 15.0157 4.06564 15.0157 3.89626 14.55L3.24393 12.756L1.45005 12.1037C0.98426 11.9344 0.984259 11.2756 1.45005 11.1062Z" stroke="black" stroke-width="1.14" stroke-linecap="round" stroke-linejoin="round"/>
<path d="M1.45005 2.98636L2.57668 2.57668L2.98636 1.45005C3.15574 0.984259 3.81449 0.98426 3.98388 1.45005L4.39356 2.57668L5.52018 2.98636C5.98598 3.15574 5.98598 3.81449 5.52018 3.98388L4.39356 4.39356L3.98388 5.52018C3.81449 5.98598 3.15574 5.98598 2.98636 5.52018L2.57668 4.39356L1.45005 3.98388C0.984259 3.81449 0.98426 3.15574 1.45005 2.98636Z" stroke="black" stroke-width="1.14" stroke-linecap="round" stroke-linejoin="round"/>
</g>
<defs>
<clipPath id="clip0_17_4662">
<rect width="16" height="16" fill="white"/>
</clipPath>
</defs>
</svg>
