<svg width="16" height="16" viewBox="0 0 16 16" fill="none" xmlns="http://www.w3.org/2000/svg">
<path d="M15.4286 8C15.4286 8.57332 15.091 9.09285 14.5671 9.32569L2.3692 14.747C2.20572 14.8197 2.02883 14.8571 1.84994 14.8571C1.14384 14.8571 0.571426 14.2847 0.571426 13.5786V13.5431C0.571426 13.4088 0.591998 13.2753 0.632423 13.1473L2.20355 8.17208C2.23892 8.06008 2.23892 7.93992 2.20355 7.82792L0.632423 2.85267C0.591997 2.72465 0.571426 2.5912 0.571426 2.45695V2.42137C0.571426 1.71527 1.14384 1.14286 1.84994 1.14286C2.02883 1.14286 2.20572 1.1804 2.3692 1.25305L14.5671 6.67431C15.091 6.90716 15.4286 7.42669 15.4286 8Z" fill="black"/>
</svg>
