<svg width="16" height="16" viewBox="0 0 16 16" fill="none" xmlns="http://www.w3.org/2000/svg">
<path d="M2.55485 2.21875L13.8836 7.25374C14.1785 7.38481 14.3686 7.67727 14.3686 8C14.3686 8.32272 14.1785 8.61518 13.8836 8.74626L2.55485 13.7813C2.47088 13.8185 2.38003 13.8379 2.28814 13.8379C1.92545 13.8379 1.63143 13.5438 1.63143 13.1811V13.1481C1.63143 13.0777 1.64223 13.0076 1.66344 12.9404L3.12264 8.31962C3.18834 8.11161 3.18834 7.88839 3.12264 7.68037L1.66344 3.0596C1.64223 2.9924 1.63143 2.92236 1.63143 2.85189V2.81885C1.63143 2.45616 1.92545 2.16214 2.28814 2.16214C2.38003 2.16214 2.47088 2.18143 2.55485 2.21875Z" stroke="black" stroke-width="1.14" stroke-linecap="round" stroke-linejoin="round"/>
</svg>
