<svg width="40" height="40" viewBox="0 0 40 40" fill="none" xmlns="http://www.w3.org/2000/svg">
<g clip-path="url(#clip0_361_15853)">
<path d="M7.14286 2.27855e-06C6.00622 2.27855e-06 4.91613 0.451532 4.1124 1.25526C3.30868 2.05899 2.85715 3.14907 2.85715 4.28572V35.7143C2.85715 36.8509 3.30868 37.941 4.1124 38.7447C4.91613 39.5485 6.00622 40 7.14286 40H32.8571C33.9938 40 35.0839 39.5485 35.8876 38.7447C36.6913 37.941 37.1429 36.8509 37.1429 35.7143V14.2857C37.1432 14.098 37.1065 13.912 37.035 13.7385C36.9634 13.5649 36.8583 13.4072 36.7257 13.2743L23.8686 0.417145C23.7357 0.284568 23.5779 0.179488 23.4044 0.107912C23.2308 0.0363357 23.0449 -0.000332999 22.8571 2.27855e-06H7.14286Z" fill="#8FBFFA"/>
<path d="M37.1429 14.2857C37.1432 14.098 37.1065 13.912 37.035 13.7385C36.9634 13.5649 36.8583 13.4072 36.7257 13.2743L23.8686 0.417145C23.7357 0.284568 23.5779 0.179488 23.4044 0.107912C23.2308 0.0363357 23.0449 -0.000332999 22.8571 2.27855e-06V12.8571C22.8571 13.236 23.0077 13.5994 23.2756 13.8673C23.5435 14.1352 23.9068 14.2857 24.2857 14.2857H37.1429Z" fill="#2859C5"/>
</g>
<defs>
<clipPath id="clip0_361_15853">
<rect width="40" height="40" fill="white"/>
</clipPath>
</defs>
</svg>
