<svg width="24" height="24" viewBox="0 0 24 24" fill="none" xmlns="http://www.w3.org/2000/svg">
<g clip-path="url(#clip0_1532_34825)">
<path d="M21.2 5.19999V20C21.2 20.3182 21.0736 20.6235 20.8485 20.8485C20.6235 21.0736 20.3183 21.2 20 21.2H1.6C1.28174 21.2 0.976515 21.0736 0.751471 20.8485C0.526428 20.6235 0.4 20.3182 0.4 20V5.19999L1.2 4.79999H20.8L21.2 5.19999Z" fill="#E3F0FF"/>
<path d="M17.2 13.0304L13.536 9.88801C13.4432 9.80773 13.3247 9.76355 13.202 9.76355C13.0793 9.76355 12.9608 9.80773 12.868 9.88801L7.2 14.8L5.556 13.484C5.45734 13.4064 5.3337 13.3677 5.20841 13.3751C5.08313 13.3824 4.96488 13.4354 4.876 13.524L3.036 15.364C2.96124 15.4385 2.90191 15.527 2.86141 15.6245C2.82092 15.722 2.80005 15.8265 2.8 15.932V18.4C2.80063 18.612 2.88512 18.8151 3.03501 18.965C3.18491 19.1149 3.38802 19.1994 3.6 19.2H11.2L17.2 13.0304Z" fill="#11117F"/>
<path d="M13.996 22.172L13.988 22.18C13.7156 22.4485 13.3799 22.6438 13.012 22.748L9.96 23.58C9.85766 23.608 9.74975 23.6083 9.64725 23.5809C9.54475 23.5536 9.45134 23.4995 9.37653 23.4243C9.30172 23.3491 9.24819 23.2554 9.2214 23.1528C9.1946 23.0501 9.1955 22.9422 9.224 22.84L10.056 19.788C10.1564 19.4194 10.3508 19.0831 10.62 18.812L10.628 18.808L13.2 19.6L13.996 22.172Z" fill="#D6A36B"/>
<path d="M21.2 1.59999V5.19999H0.4V1.59999C0.4 1.28173 0.526428 0.976509 0.751471 0.751466C0.976515 0.526422 1.28174 0.399994 1.6 0.399994H20C20.3183 0.399994 20.6235 0.526422 20.8485 0.751466C21.0736 0.976509 21.2 1.28173 21.2 1.59999Z" fill="#C3D2EA"/>
<path d="M5 11.2C5.99411 11.2 6.8 10.3941 6.8 9.40001C6.8 8.40589 5.99411 7.60001 5 7.60001C4.00589 7.60001 3.2 8.40589 3.2 9.40001C3.2 10.3941 4.00589 11.2 5 11.2Z" fill="#EAAD32"/>
<path d="M20.308 15.86L13.996 22.172L10.628 18.808L16.94 12.496L19.2 13.6L20.308 15.86Z" fill="#F2C23B"/>
<path d="M23.252 12.916L21.988 14.18L19.6 13.2L18.62 10.812L19.884 9.548C20.1076 9.32519 20.4104 9.20007 20.726 9.20007C21.0416 9.20007 21.3444 9.32519 21.568 9.548L23.252 11.232C23.4748 11.4556 23.5999 11.7584 23.5999 12.074C23.5999 12.3896 23.4748 12.6924 23.252 12.916Z" fill="#ED5F54"/>
<path d="M2.8 3.6C3.24183 3.6 3.6 3.24183 3.6 2.8C3.6 2.35817 3.24183 2 2.8 2C2.35817 2 2 2.35817 2 2.8C2 3.24183 2.35817 3.6 2.8 3.6Z" fill="white"/>
<path d="M16.9365 12.4949L18.6171 10.8143L21.9836 14.1807L20.3029 15.8614L16.9365 12.4949Z" fill="#D5E1F7"/>
<path d="M10.4 2.40001H5.6C5.49391 2.40001 5.39217 2.35786 5.31716 2.28285C5.24214 2.20783 5.2 2.10609 5.2 2.00001C5.2 1.89392 5.24214 1.79218 5.31716 1.71716C5.39217 1.64215 5.49391 1.60001 5.6 1.60001H10.4C10.5061 1.60001 10.6078 1.64215 10.6828 1.71716C10.7579 1.79218 10.8 1.89392 10.8 2.00001C10.8 2.10609 10.7579 2.20783 10.6828 2.28285C10.6078 2.35786 10.5061 2.40001 10.4 2.40001Z" fill="#A1B5D1"/>
<path d="M8.4 4.00001H5.6C5.49391 4.00001 5.39217 3.95787 5.31716 3.88285C5.24214 3.80784 5.2 3.7061 5.2 3.60001C5.2 3.49393 5.24214 3.39218 5.31716 3.31717C5.39217 3.24216 5.49391 3.20001 5.6 3.20001H8.4C8.50609 3.20001 8.60783 3.24216 8.68284 3.31717C8.75786 3.39218 8.8 3.49393 8.8 3.60001C8.8 3.7061 8.75786 3.80784 8.68284 3.88285C8.60783 3.95787 8.50609 4.00001 8.4 4.00001Z" fill="#A1B5D1"/>
<path d="M12.0255 20.2054L18.3356 13.8953L18.9012 14.4609L12.5911 20.771L12.0255 20.2054Z" fill="#EAAD32"/>
</g>
<defs>
<clipPath id="clip0_1532_34825">
<rect width="24" height="24" fill="white"/>
</clipPath>
</defs>
</svg>
