<svg width="16" height="16" viewBox="0 0 16 16" fill="none" xmlns="http://www.w3.org/2000/svg">
<g clip-path="url(#clip0_247_10340)">
<path d="M8.00002 14.8992C6.44528 13.1874 4.3368 12.0787 2.0454 11.768C1.78459 11.7391 1.54371 11.6146 1.36925 11.4186C1.1948 11.2226 1.09914 10.9689 1.10073 10.7065V2.16201C1.10072 2.0087 1.13392 1.8572 1.19805 1.71794C1.26218 1.57869 1.35572 1.45498 1.47223 1.35532C1.58668 1.25748 1.72065 1.18511 1.86522 1.14302C2.00979 1.10093 2.16167 1.09008 2.31076 1.11119C4.50185 1.47485 6.50629 2.56682 8.00002 4.21057V14.8992Z" stroke="black" stroke-width="1.14" stroke-linecap="round" stroke-linejoin="round"/>
<path d="M8 14.8992C9.55474 13.1874 11.6632 12.0787 13.9546 11.768C14.2154 11.7391 14.4564 11.6146 14.6307 11.4186C14.8052 11.2226 14.9009 10.9689 14.8993 10.7065V2.16201C14.8993 2.0087 14.8661 1.8572 14.802 1.71794C14.7378 1.57869 14.6443 1.45498 14.5278 1.35532C14.4134 1.25748 14.2794 1.18511 14.1348 1.14302C13.9902 1.10093 13.8384 1.09008 13.6893 1.11119C11.4982 1.47485 9.49373 2.56682 8 4.21057V14.8992Z" stroke="black" stroke-width="1.14" stroke-linecap="round" stroke-linejoin="round"/>
</g>
<defs>
<clipPath id="clip0_247_10340">
<rect width="16" height="16" fill="white"/>
</clipPath>
</defs>
</svg>
