<svg width="24" height="24" viewBox="0 0 24 24" fill="none" xmlns="http://www.w3.org/2000/svg">
<path d="M18.9256 10.7975V6.92593C18.9256 3.10081 15.8248 0 12.0002 0C8.17509 0 5.07423 3.10081 5.07423 6.92593V10.7975M7.57172 10.7975V6.92593C7.57172 4.48376 9.55846 2.49753 12.0001 2.49753C14.4418 2.49753 16.428 4.4838 16.428 6.92593V10.7975" fill="#D3DAE0"/>
<path d="M12.4041 0.0120468C12.2704 0.00435935 12.1358 0 12.0002 0C8.17509 0 5.07423 3.10081 5.07423 6.92593V10.7975H5.88221V6.92593C5.88221 3.23647 8.76712 0.221296 12.4041 0.0120468Z" fill="#899EA8"/>
<path d="M12.8081 2.4975C12.672 2.4975 12.5373 2.50401 12.4041 2.51611C14.6571 2.72086 16.428 4.61994 16.428 6.92589V10.7975H17.236V6.92589C17.2361 4.48377 15.2498 2.4975 12.8081 2.4975Z" fill="#899EA8"/>
<path d="M21.2182 10.7975H2.78178V24H21.2182V10.7975Z" fill="#F79F00"/>
<path d="M4.3977 10.7975H2.78178V24H4.3977V10.7975Z" fill="#E48900"/>
<path d="M13.9832 16.1595C13.9832 15.0641 13.0953 14.1762 12 14.1762C10.9047 14.1762 10.0168 15.0641 10.0168 16.1595C10.0168 16.9139 10.4381 17.5698 11.0581 17.9051L10.739 20.3462H13.261L12.9419 17.9051C13.562 17.5698 13.9832 16.9139 13.9832 16.1595Z" fill="#3E3D4C"/>
</svg>
