<svg width="16" height="16" viewBox="0 0 16 16" fill="none" xmlns="http://www.w3.org/2000/svg">
<path d="M12.2457 6.40784H3.75428C3.16808 6.40784 2.69286 6.88306 2.69286 7.46927V13.8378C2.69286 14.4241 3.16808 14.8993 3.75428 14.8993H12.2457C12.8319 14.8993 13.3071 14.4241 13.3071 13.8378V7.46927C13.3071 6.88306 12.8319 6.40784 12.2457 6.40784Z" stroke="black" stroke-width="1.14" stroke-linecap="round" stroke-linejoin="round"/>
<path d="M11.715 6.40785V4.81571C11.715 3.83043 11.3237 2.8855 10.6269 2.18881C9.93021 1.49211 8.98529 1.10071 8 1.10071C7.01472 1.10071 6.0698 1.49211 5.37311 2.18881C4.67641 2.8855 4.285 3.83043 4.285 4.81571V6.40785" stroke="black" stroke-width="1.14" stroke-linecap="round" stroke-linejoin="round"/>
<path d="M8 11.1843C8.2931 11.1843 8.53071 10.9467 8.53071 10.6536C8.53071 10.3605 8.2931 10.1229 8 10.1229C7.7069 10.1229 7.46928 10.3605 7.46928 10.6536C7.46928 10.9467 7.7069 11.1843 8 11.1843Z" stroke="black" stroke-width="1.14" stroke-linecap="round" stroke-linejoin="round"/>
</svg>
