<svg width="16" height="16" viewBox="0 0 16 16" fill="none" xmlns="http://www.w3.org/2000/svg">
<path d="M12.7765 9.59213H3.22363L2.41694 13.6256C2.38655 13.7798 2.39079 13.9388 2.42934 14.0911C2.46789 14.2434 2.53978 14.3853 2.63984 14.5065C2.73861 14.6283 2.86312 14.7267 3.00444 14.7946C3.14576 14.8624 3.30036 14.8982 3.45714 14.8993H12.543C12.6998 14.8982 12.8543 14.8624 12.9957 14.7946C13.137 14.7267 13.2615 14.6283 13.3603 14.5065C13.4603 14.3853 13.5323 14.2434 13.5708 14.0911C13.6093 13.9388 13.6136 13.7798 13.5832 13.6256L12.7765 9.59213Z" stroke="black" stroke-width="1.14" stroke-linecap="round" stroke-linejoin="round"/>
<path d="M12.7764 6.40785C13.0579 6.40785 13.3279 6.51968 13.527 6.71873C13.726 6.91779 13.8379 7.18777 13.8379 7.46928V9.59214H2.16214V7.46928C2.16214 7.18777 2.27397 6.91779 2.47302 6.71873C2.67208 6.51968 2.94206 6.40785 3.22357 6.40785H4.81571C5.09722 6.40785 5.3672 6.29602 5.56626 6.09697C5.76531 5.89791 5.87714 5.62793 5.87714 5.34642V3.22357C5.87714 2.66055 6.10079 2.12059 6.49891 1.72248C6.89702 1.32437 7.43698 1.10071 8 1.10071C8.56301 1.10071 9.10297 1.32437 9.50108 1.72248C9.8992 2.12059 10.1229 2.66055 10.1229 3.22357V5.34642C10.1229 5.62793 10.2347 5.89791 10.4337 6.09697C10.6328 6.29602 10.9028 6.40785 11.1843 6.40785H12.7764Z" stroke="black" stroke-width="1.14" stroke-linecap="round" stroke-linejoin="round"/>
<path d="M9.59213 14.8993V12.2457" stroke="black" stroke-width="1.14" stroke-linecap="round" stroke-linejoin="round"/>
</svg>
