<svg width="24" height="24" viewBox="0 0 24 24" fill="none" xmlns="http://www.w3.org/2000/svg">
<g clip-path="url(#clip0_1580_53693)">
<path d="M12 0V24C18.6274 24 24 18.6274 24 12C24 5.37257 18.6274 0 12 0Z" fill="#FFB17B"/>
<path d="M22.5513 12C22.5513 5.37257 17.8273 0 12 0C5.37257 0 0 5.37257 0 12C0 14.9137 2.362 17.2757 5.27565 17.2757C6.07577 17.2757 6.72435 17.9242 6.72435 18.7243C6.72435 21.638 9.08634 24 12 24C17.8273 24 22.5513 18.6274 22.5513 12ZM5.27565 15.1026C3.56214 15.1026 2.17304 13.7135 2.17304 12C2.17304 10.2865 3.56214 8.89738 5.27565 8.89738C6.98917 8.89738 8.37827 10.2865 8.37827 12C8.37827 13.7135 6.98917 15.1026 5.27565 15.1026Z" fill="#FFD19C"/>
<path d="M13.5366 2.08516C13.1123 1.66084 12.5561 1.4487 12 1.4487L12.3846 5.4058C12.7717 5.55173 13.225 5.46983 13.5366 5.15832C14.3852 4.30967 14.3852 2.9338 13.5366 2.08516Z" fill="#077CCC"/>
<path d="M12.5122 2.08516C12.3708 1.66084 12.1854 1.4487 12 1.4487C11.4438 1.4487 10.8877 1.66084 10.4634 2.08516C9.61477 2.9338 9.61477 4.30967 10.4634 5.15832C10.8877 5.58264 11.5757 5.58264 12 5.15832C12.1128 5.27107 12.2444 5.35297 12.3846 5.4058C12.4311 5.35297 12.4747 5.27069 12.5122 5.15832C12.795 4.30967 12.795 2.9338 12.5122 2.08516Z" fill="#09A1E5"/>
<path d="M13.5366 21.9149C13.1123 22.3392 12.5562 22.5513 12 22.5513L12.3846 18.5942C12.7717 18.4483 13.225 18.5302 13.5366 18.8417C14.3852 19.6903 14.3852 21.0662 13.5366 21.9149Z" fill="#CB2E81"/>
<path d="M12.5122 21.9148C12.3708 22.3392 12.1854 22.5513 12 22.5513C11.4438 22.5513 10.8877 22.3392 10.4634 21.9148C9.61477 21.0662 9.61477 19.6903 10.4634 18.8417C10.8877 18.4174 11.5757 18.4174 12 18.8417C12.1128 18.7289 12.2444 18.647 12.3846 18.5942C12.4311 18.647 12.4747 18.7293 12.5122 18.8417C12.795 19.6903 12.795 21.0662 12.5122 21.9148Z" fill="#FF3187"/>
<path d="M17.9243 20.0974V15.7513C19.1245 15.7513 20.0974 16.7242 20.0974 17.9243C20.0974 19.1245 19.1245 20.0974 17.9243 20.0974Z" fill="#FF7169"/>
<path d="M18.6487 17.9243C18.6487 19.1245 18.3244 20.0974 17.9243 20.0974C16.7242 20.0974 15.7513 19.1245 15.7513 17.9243C15.7513 17.3243 16.2377 16.8378 16.8378 16.8378C16.8378 16.2378 17.3242 15.7513 17.9243 15.7513C18.3244 15.7513 18.6487 16.7242 18.6487 17.9243Z" fill="#FF9259"/>
<path d="M21.9148 10.4634C21.4905 10.0391 20.9344 9.82697 20.3783 9.82697V14.173C20.9344 14.173 21.4905 13.9609 21.9148 13.5366C22.7634 12.6879 22.7634 11.3121 21.9148 10.4634Z" fill="#FF9259"/>
<path d="M21.1026 12C21.1026 10.7999 20.7783 9.82697 20.3783 9.82697C19.8221 9.82697 19.266 10.0391 18.8417 10.4634C18.4174 10.8877 18.4174 11.5757 18.8417 12C18.4174 12.4243 18.4174 13.1123 18.8417 13.5366C19.266 13.9609 19.8221 14.173 20.3783 14.173C20.7783 14.173 21.1026 13.2001 21.1026 12Z" fill="#FFB24A"/>
<path d="M17.9243 3.90262V8.24869C19.1245 8.24869 20.0974 7.2758 20.0974 6.07566C20.0974 4.87551 19.1245 3.90262 17.9243 3.90262Z" fill="#49B296"/>
<path d="M18.6487 6.07566C18.6487 4.87551 18.3244 3.90262 17.9243 3.90262C16.7242 3.90262 15.7513 4.87551 15.7513 6.07566C15.7513 6.6757 16.2377 7.16218 16.8378 7.16218C16.8378 7.76222 17.3242 8.24869 17.9243 8.24869C18.3244 8.24869 18.6487 7.2758 18.6487 6.07566Z" fill="#89C247"/>
</g>
<defs>
<clipPath id="clip0_1580_53693">
<rect width="24" height="24" fill="white"/>
</clipPath>
</defs>
</svg>
