<svg width="16" height="16" viewBox="0 0 16 16" fill="none" xmlns="http://www.w3.org/2000/svg">
<path d="M12.2457 12.7764V3.75428C12.2457 3.05051 11.9661 2.37556 11.4685 1.87792C10.9709 1.38028 10.2959 1.10071 9.59214 1.10071H6.40786C5.70409 1.10071 5.02913 1.38028 4.53149 1.87792C4.03385 2.37556 3.75428 3.05051 3.75428 3.75428V12.7764C3.75428 13.3394 3.97794 13.8794 4.37606 14.2775C4.77417 14.6756 5.31413 14.8993 5.87714 14.8993H7.46928C8.0323 14.8993 8.57226 14.6756 8.97037 14.2775C9.36849 13.8794 9.59214 13.3394 9.59214 12.7764V4.81571C9.59214 4.5342 9.48031 4.26422 9.28126 4.06516C9.0822 3.86611 8.81222 3.75428 8.53071 3.75428H7.46928C7.18777 3.75428 6.9178 3.86611 6.71874 4.06516C6.51969 4.26422 6.40786 4.5342 6.40786 4.81571V10.6536" stroke="black" stroke-width="1.14" stroke-linecap="round" stroke-linejoin="round"/>
</svg>
