<svg width="16" height="16" viewBox="0 0 16 16" fill="none" xmlns="http://www.w3.org/2000/svg">
<path d="M1.63142 14.3686H14.3624" stroke="black" stroke-width="1.14" stroke-linecap="round" stroke-linejoin="round"/>
<path d="M6.9356 11.6752L3.75273 12.2457L4.2832 9.03368L11.4234 1.94396C11.522 1.84493 11.6394 1.76632 11.7687 1.71269C11.898 1.65904 12.0366 1.63142 12.1767 1.63142C12.3167 1.63142 12.4554 1.65904 12.5847 1.71269C12.714 1.76632 12.8314 1.84493 12.93 1.94396L14.0546 3.06395C14.1541 3.16217 14.233 3.27903 14.2868 3.40779C14.3407 3.53654 14.3685 3.67464 14.3685 3.81412C14.3685 3.95361 14.3407 4.09171 14.2868 4.22046C14.233 4.34922 14.1541 4.46608 14.0546 4.5643L6.9356 11.6752Z" stroke="black" stroke-width="1.14" stroke-linecap="round" stroke-linejoin="round"/>
</svg>
