<svg width="16" height="16" viewBox="0 0 16 16" fill="none" xmlns="http://www.w3.org/2000/svg">
<g clip-path="url(#clip0_15_5106)">
<path d="M5.87714 13.5619L1.10072 14.8993L2.43812 10.1229L11.1843 1.41915C11.2831 1.31805 11.4012 1.23773 11.5315 1.18288C11.6618 1.12804 11.8018 1.09979 11.9432 1.09979C12.0846 1.09979 12.2246 1.12804 12.3549 1.18288C12.4852 1.23773 12.6033 1.31805 12.7021 1.41915L14.5809 3.30849C14.6803 3.40716 14.7593 3.52457 14.8132 3.6539C14.8671 3.78325 14.8948 3.92199 14.8948 4.06211C14.8948 4.20223 14.8671 4.34096 14.8132 4.47031C14.7593 4.59966 14.6803 4.71705 14.5809 4.81572L5.87714 13.5619Z" stroke="black" stroke-width="1.14" stroke-linecap="round" stroke-linejoin="round"/>
</g>
<defs>
<clipPath id="clip0_15_5106">
<rect width="16" height="16" fill="white"/>
</clipPath>
</defs>
</svg>
