<svg width="16" height="16" viewBox="0 0 16 16" fill="none" xmlns="http://www.w3.org/2000/svg">
<g clip-path="url(#clip0_614_27715)">
<path d="M6.14018 14.3491C5.48789 14.7699 4.71059 14.9533 3.93899 14.8685C3.16739 14.7836 2.44854 14.4356 1.90333 13.8831L1.42668 13.417C1.21771 13.2032 1.10071 12.9162 1.10071 12.6173C1.10071 12.3184 1.21771 12.0313 1.42668 11.8176L3.44978 9.81568C3.66173 9.60738 3.94701 9.49067 4.24419 9.49067C4.54136 9.49067 4.82665 9.60738 5.0386 9.81568C5.25234 10.0247 5.53939 10.1417 5.83831 10.1417C6.13723 10.1417 6.42427 10.0247 6.63801 9.81568L9.81565 6.63804C9.92166 6.53357 10.0058 6.40908 10.0633 6.27179C10.1207 6.13451 10.1503 5.98716 10.1503 5.83834C10.1503 5.6895 10.1207 5.54217 10.0633 5.40487C10.0058 5.26758 9.92166 5.14309 9.81565 5.03862C9.60736 4.82668 9.49064 4.54139 9.49064 4.24422C9.49064 3.94704 9.60736 3.66176 9.81565 3.4498L11.8281 1.4373C12.0419 1.22833 12.3289 1.11133 12.6278 1.11133C12.9268 1.11133 13.2138 1.22833 13.4276 1.4373L13.8937 1.91395C14.4462 2.45916 14.7941 3.17801 14.879 3.94961C14.9639 4.72121 14.7805 5.49851 14.3596 6.1508C12.1671 9.38218 9.37721 12.1648 6.14018 14.3491Z" stroke="black" stroke-width="1.14" stroke-linecap="round" stroke-linejoin="round"/>
</g>
<defs>
<clipPath id="clip0_614_27715">
<rect width="16" height="16" fill="white"/>
</clipPath>
</defs>
</svg>
