<svg width="16" height="16" viewBox="0 0 16 16" fill="none" xmlns="http://www.w3.org/2000/svg">
<g clip-path="url(#clip0_53_6596)">
<path d="M5.12616 5.10656L7.80737 4.50941L9.56934 1.61171C9.65134 1.47652 9.7625 1.36135 9.8947 1.27462C10.0269 1.1879 10.1768 1.1318 10.3335 1.11044C10.4902 1.08908 10.6496 1.10298 10.8002 1.15115C10.9508 1.19931 11.0887 1.2805 11.2039 1.38881L14.6111 4.796C14.7195 4.91119 14.8007 5.04913 14.8488 5.19973C14.8969 5.35033 14.9109 5.50979 14.8895 5.66645C14.8682 5.82311 14.812 5.97303 14.7253 6.10523C14.6386 6.23744 14.5234 6.3486 14.3882 6.4306L11.448 8.1395L10.8142 10.7946" stroke="black" stroke-width="1.14" stroke-linecap="round" stroke-linejoin="round"/>
<path d="M7.80749 4.50941L5.12628 5.10656M2.75158 5.72957C2.67056 5.8071 2.61143 5.90465 2.5802 6.01235C2.54896 6.12007 2.54672 6.23412 2.5737 6.34297C2.60068 6.45182 2.65594 6.55161 2.73386 6.63227L9.26164 13.1706C9.34428 13.2455 9.4448 13.2976 9.55352 13.3222C9.66222 13.3467 9.77542 13.3428 9.88216 13.3107C9.98889 13.2787 10.0856 13.2197 10.1628 13.1394" stroke="black" stroke-width="1.14" stroke-linecap="round" stroke-linejoin="round"/>
<path d="M1.10071 14.8993L6.04775 9.95207" stroke="black" stroke-width="1.14" stroke-linecap="round" stroke-linejoin="round"/>
<path d="M14.8993 14.8993L1.10071 1.10071" stroke="black" stroke-width="1.14" stroke-linecap="round" stroke-linejoin="round"/>
</g>
<defs>
<clipPath id="clip0_53_6596">
<rect width="16" height="16" fill="white"/>
</clipPath>
</defs>
</svg>
