<svg width="16" height="16" viewBox="0 0 16 16" fill="none" xmlns="http://www.w3.org/2000/svg">
<g clip-path="url(#clip0_53_6593)">
<path d="M11.4482 8.1395L14.3883 6.4306C14.5235 6.3486 14.6387 6.23744 14.7254 6.10523C14.8121 5.97303 14.8683 5.82311 14.8896 5.66645C14.911 5.50979 14.8971 5.35033 14.8489 5.19973C14.8008 5.04913 14.7196 4.91119 14.6112 4.796L11.204 1.38881C11.0889 1.2805 10.9509 1.19931 10.8003 1.15115C10.6497 1.10298 10.4903 1.08908 10.3336 1.11044C10.1769 1.1318 10.027 1.1879 9.89482 1.27462C9.76262 1.36135 9.65145 1.47652 9.56946 1.61171L7.80749 4.50941L3.04167 5.57084C2.9327 5.59728 2.83262 5.65204 2.75158 5.72957C2.67056 5.80709 2.61143 5.90465 2.5802 6.01235C2.54896 6.12007 2.54672 6.23412 2.5737 6.34297C2.60068 6.45182 2.65594 6.55161 2.73386 6.63227L9.26164 13.1706C9.34428 13.2455 9.4448 13.2976 9.55352 13.3222C9.66222 13.3467 9.77542 13.3428 9.88216 13.3107C9.98889 13.2787 10.0856 13.2197 10.1628 13.1394C10.24 13.0591 10.2953 12.9602 10.3231 12.8522L11.4482 8.1395Z" stroke="black" stroke-width="1.14" stroke-linecap="round" stroke-linejoin="round"/>
<path d="M1.10071 14.8993L6.04775 9.95207" stroke="black" stroke-width="1.14" stroke-linecap="round" stroke-linejoin="round"/>
</g>
<defs>
<clipPath id="clip0_53_6593">
<rect width="16" height="16" fill="white"/>
</clipPath>
</defs>
</svg>
