<svg width="32" height="32" viewBox="0 0 32 32" fill="none" xmlns="http://www.w3.org/2000/svg">
<path d="M27.66 13.16C27.66 14.6515 26.0935 15.821 25.5555 17.118C24.998 18.4625 25.258 20.392 24.2445 21.405C23.231 22.418 21.302 22.158 19.9575 22.7155C18.6605 23.2535 17.491 24.82 15.9995 24.82C14.508 24.82 13.3385 23.2535 12.0415 22.7155C10.697 22.158 8.7675 22.418 7.7545 21.4045C6.7415 20.391 7.0015 18.462 6.444 17.1175C5.906 15.8205 4.3395 14.651 4.3395 13.1595C4.3395 11.668 5.906 10.4985 6.444 9.20151C7.0015 7.85701 6.7415 5.92751 7.755 4.91451C8.7685 3.90151 10.6975 4.16151 12.042 3.60401C13.339 3.06601 14.5085 1.49951 16 1.49951C17.4915 1.49951 18.661 3.06601 19.958 3.60401C21.3025 4.16151 23.232 3.90151 24.245 4.91501C25.258 5.92851 24.998 7.85751 25.5555 9.20201C26.0935 10.499 27.66 11.6685 27.66 13.16Z" fill="#FFCB29"/>
<path d="M16 20.66C20.1421 20.66 23.5 17.3021 23.5 13.16C23.5 9.01787 20.1421 5.66 16 5.66C11.8579 5.66 8.5 9.01787 8.5 13.16C8.5 17.3021 11.8579 20.66 16 20.66Z" fill="#FAA629"/>
<path d="M12.042 22.7155C10.6975 22.158 8.768 22.418 7.755 21.4045C7.099 20.7485 6.9765 19.7085 6.8205 18.692L1.5 25.033L6.686 25.4685L8.015 30.5L13.667 23.764C13.1255 23.3615 12.595 22.945 12.042 22.7155Z" fill="#ED5F54"/>
<path d="M25.1795 18.6925C25.0235 19.709 24.901 20.749 24.245 21.405C23.232 22.418 21.3025 22.158 19.958 22.7155C19.4045 22.945 18.8745 23.3615 18.333 23.764L23.985 30.5L25.314 25.4685L30.5 25.033L25.1795 18.6925Z" fill="#ED5F54"/>
<path d="M16.8096 8V17.9395H15.415V9.51758L14 10.3857V8.94336L15.415 8H16.8096Z" fill="white"/>
</svg>
