<svg width="32" height="32" viewBox="0 0 32 32" fill="none" xmlns="http://www.w3.org/2000/svg">
<path d="M27.66 13.16C27.66 14.6515 26.0935 15.821 25.5555 17.118C24.998 18.4625 25.258 20.392 24.2445 21.405C23.231 22.418 21.302 22.158 19.9575 22.7155C18.6605 23.2535 17.491 24.82 15.9995 24.82C14.508 24.82 13.3385 23.2535 12.0415 22.7155C10.697 22.158 8.76749 22.418 7.75449 21.4045C6.74149 20.391 7.00149 18.462 6.44399 17.1175C5.90599 15.8205 4.33949 14.651 4.33949 13.1595C4.33949 11.668 5.90599 10.4985 6.44399 9.20151C7.00149 7.85701 6.74149 5.92751 7.75499 4.91451C8.76849 3.90151 10.6975 4.16151 12.042 3.60401C13.339 3.06601 14.5085 1.49951 16 1.49951C17.4915 1.49951 18.661 3.06601 19.958 3.60401C21.3025 4.16151 23.232 3.90151 24.245 4.91501C25.258 5.92851 24.998 7.85751 25.5555 9.20201C26.0935 10.499 27.66 11.6685 27.66 13.16Z" fill="#8D6E63"/>
<path d="M16 20.66C20.1421 20.66 23.5 17.3021 23.5 13.16C23.5 9.01787 20.1421 5.66 16 5.66C11.8579 5.66 8.5 9.01787 8.5 13.16C8.5 17.3021 11.8579 20.66 16 20.66Z" fill="#BDAAA4"/>
<path d="M12.042 22.7155C10.6975 22.158 8.768 22.418 7.755 21.4045C7.099 20.7485 6.9765 19.7085 6.8205 18.692L1.5 25.033L6.686 25.4685L8.015 30.5L13.667 23.764C13.1255 23.3615 12.595 22.945 12.042 22.7155Z" fill="#3D82C4"/>
<path d="M25.1795 18.6925C25.0235 19.709 24.901 20.749 24.245 21.405C23.232 22.418 21.3025 22.158 19.958 22.7155C19.4045 22.945 18.8745 23.3615 18.333 23.764L23.985 30.5L25.314 25.4685L30.5 25.033L25.1795 18.6925Z" fill="#3D82C4"/>
<path d="M15.9805 18.1445C15.4199 18.1445 14.9277 18.0443 14.5039 17.8438C14.0846 17.6387 13.7474 17.3447 13.4922 16.9619C13.237 16.5791 13.0729 16.1143 13 15.5674H14.4219C14.4857 15.9958 14.6543 16.3102 14.9277 16.5107C15.2012 16.7067 15.5521 16.8047 15.9805 16.8047C16.4408 16.8047 16.7985 16.6816 17.0537 16.4355C17.3089 16.1895 17.4365 15.8431 17.4365 15.3965V15.0957C17.4365 14.599 17.3158 14.2161 17.0742 13.9473C16.8327 13.6738 16.4909 13.5371 16.0488 13.5371H15.3447V12.2109H16.0488C16.4408 12.2109 16.7415 12.0947 16.9512 11.8623C17.1654 11.6299 17.2725 11.3018 17.2725 10.8779V10.5703C17.2725 10.1784 17.1585 9.87533 16.9307 9.66113C16.7074 9.44694 16.3883 9.33984 15.9736 9.33984C15.6227 9.33984 15.3242 9.4401 15.0781 9.64062C14.8366 9.83659 14.6702 10.1488 14.5791 10.5771H13.1641C13.3053 9.75684 13.6198 9.12337 14.1074 8.67676C14.5996 8.22559 15.2217 8 15.9736 8C16.8304 8 17.4935 8.22559 17.9629 8.67676C18.4323 9.12793 18.667 9.76367 18.667 10.584V10.748C18.667 11.2448 18.5326 11.6777 18.2637 12.0469C17.9948 12.4115 17.6143 12.6803 17.1221 12.8535C17.6644 12.9674 18.0837 13.234 18.3799 13.6533C18.6807 14.068 18.8311 14.5967 18.8311 15.2393V15.4033C18.8311 16.2738 18.5827 16.9482 18.0859 17.4268C17.5892 17.9053 16.8874 18.1445 15.9805 18.1445Z" fill="white"/>
</svg>
