<svg width="16" height="16" viewBox="0 0 16 16" fill="none" xmlns="http://www.w3.org/2000/svg">
<path d="M1.63143 4.28499H14.3686" stroke="black" stroke-width="1.14" stroke-linecap="round" stroke-linejoin="round"/>
<path d="M3.22357 4.28499H12.7764V13.8378C12.7764 14.1193 12.6646 14.3894 12.4655 14.5884C12.2665 14.7874 11.9965 14.8993 11.715 14.8993H4.285C4.00349 14.8993 3.73351 14.7874 3.53445 14.5884C3.3354 14.3894 3.22357 14.1193 3.22357 13.8378V4.28499Z" stroke="black" stroke-width="1.14" stroke-linecap="round" stroke-linejoin="round"/>
<path d="M5.34643 4.28499V3.75428C5.34643 3.05051 5.626 2.37556 6.12364 1.87792C6.62128 1.38028 7.29623 1.10071 8 1.10071C8.70377 1.10071 9.37872 1.38028 9.87636 1.87792C10.374 2.37556 10.6536 3.05051 10.6536 3.75428V4.28499" stroke="black" stroke-width="1.14" stroke-linecap="round" stroke-linejoin="round"/>
<path d="M6.40786 7.47083V11.7182" stroke="black" stroke-width="1.14" stroke-linecap="round" stroke-linejoin="round"/>
<path d="M9.59214 7.47083V11.7182" stroke="black" stroke-width="1.14" stroke-linecap="round" stroke-linejoin="round"/>
</svg>
