<svg width="16" height="16" viewBox="0 0 16 16" fill="none" xmlns="http://www.w3.org/2000/svg">
<g clip-path="url(#clip0_62_9129)">
<path d="M6.93858 14.6339H9.06143" stroke="black" stroke-width="1.14" stroke-linecap="round" stroke-linejoin="round"/>
<path d="M12.2457 6.6732C12.2457 5.54717 11.7984 4.46726 11.0022 3.67103C10.206 2.87481 9.12604 2.42749 8 2.42749C6.87397 2.42749 5.79406 2.87481 4.99783 3.67103C4.20161 4.46726 3.75429 5.54717 3.75429 6.6732V10.3882C3.75429 10.8105 3.58654 11.2155 3.28796 11.5141C2.98938 11.8126 2.58441 11.9803 2.16215 11.9803H13.8379C13.4156 11.9803 13.0106 11.8126 12.712 11.5141C12.4134 11.2155 12.2457 10.8105 12.2457 10.3882V6.6732Z" stroke="black" stroke-width="1.14" stroke-linecap="round" stroke-linejoin="round"/>
<path d="M1.10072 6.53522C1.10129 5.52488 1.34223 4.52919 1.80364 3.63037C2.26504 2.73155 2.93366 1.95542 3.75429 1.36606" stroke="black" stroke-width="1.14" stroke-linecap="round" stroke-linejoin="round"/>
<path d="M14.8993 6.53522C14.8988 5.52488 14.6578 4.52919 14.1964 3.63037C13.735 2.73155 13.0663 1.95542 12.2457 1.36606" stroke="black" stroke-width="1.14" stroke-linecap="round" stroke-linejoin="round"/>
</g>
<defs>
<clipPath id="clip0_62_9129">
<rect width="16" height="16" fill="white"/>
</clipPath>
</defs>
</svg>
