<svg width="24" height="24" viewBox="0 0 24 24" fill="none" xmlns="http://www.w3.org/2000/svg">
<g clip-path="url(#clip0_1580_53695)">
<path d="M14.3513 15.7291L14.9411 16.3192L15.6306 17.0051L15.8963 17.2727L17.2721 15.8959L15.7295 14.3509L14.3513 15.7291Z" fill="#5D6D7E"/>
<path d="M18.675 15.8868L23.4227 20.6342C23.7798 20.9904 24.0014 21.4848 24 22.0285C24 22.5732 23.7798 23.0671 23.4227 23.4247C23.0665 23.7804 22.5733 23.9999 22.0286 23.9999C21.4842 23.9999 20.9915 23.7804 20.6343 23.4235L15.8869 18.6756L18.675 15.8868Z" fill="#FF8E31"/>
<path d="M18.0198 16.543L18.4056 16.1565L23.1537 20.9046C23.4535 21.2046 23.6183 21.6036 23.6181 22.0283C23.6181 22.4542 23.4527 22.8539 23.1537 23.1544C23.0991 23.2068 23.0292 23.2332 22.9603 23.2332C22.8898 23.2332 22.8203 23.2068 22.7661 23.1537C22.6604 23.0465 22.6604 22.8749 22.7661 22.7686C22.9641 22.5713 23.0723 22.3071 23.0723 22.0276C23.073 21.7493 22.9642 21.487 22.7676 21.2907L18.0198 16.543Z" fill="#FECE59"/>
<path d="M15.8867 18.6756L18.675 15.8866L18.4671 15.6781C18.3415 15.5521 18.1699 15.4756 17.9791 15.4756C17.7871 15.4756 17.6151 15.5518 17.4908 15.6772L15.6775 17.4913C15.553 17.6149 15.4752 17.787 15.4752 17.9792C15.4752 18.1686 15.5528 18.3429 15.6775 18.4657L15.8867 18.6756Z" fill="#34495E"/>
<path d="M0 8.91386C0 3.9917 3.99108 0.000152588 8.91422 0.000152588C13.8378 0.000152588 17.8287 3.99193 17.8287 8.91386C17.8287 13.8375 13.8374 17.8283 8.91422 17.8295C3.99108 17.8283 0 13.8373 0 8.91386Z" fill="#34495E"/>
<path d="M8.91422 16.8636C13.3034 16.8636 16.8634 13.3049 16.8634 8.91375C16.8634 4.52513 13.3035 0.965302 8.91422 0.965302C4.52438 0.965395 0.964783 4.52499 0.964783 8.91385C0.964783 13.3049 4.52438 16.8636 8.91422 16.8636Z" fill="#5D6D7E"/>
<path d="M8.91422 16.2274C12.9524 16.2274 16.227 12.954 16.227 8.91384C16.227 4.87668 12.9522 1.60129 8.91422 1.60129C4.87622 1.60129 1.60106 4.87668 1.60106 8.91384C1.60106 12.9538 4.87537 16.2274 8.91422 16.2274Z" fill="#CEE2F2"/>
<path d="M9.10655 2.80191C8.982 2.61713 8.76792 2.50144 8.53233 2.51485C7.52287 2.57616 6.56887 2.86046 5.69709 3.36661C5.39016 3.54614 5.28487 3.94177 5.4637 4.25016C5.64248 4.55471 6.03863 4.66308 6.34463 4.48186C7.04002 4.08071 7.80117 3.8528 8.60808 3.80363C8.96255 3.78516 9.23522 3.47939 9.21323 3.12516C9.20916 3.00239 9.168 2.892 9.10655 2.80191Z" fill="white"/>
<path d="M4.96594 4.92207C4.93162 4.8706 4.88686 4.82283 4.83778 4.78214C4.56094 4.55569 4.155 4.59975 3.93117 4.87636C3.27239 5.68514 2.81901 6.6555 2.61886 7.68821C2.38209 8.91474 2.50594 10.1705 2.97623 11.3212C3.1133 11.6529 3.49055 11.8087 3.81961 11.6731C4.14961 11.5394 4.30683 11.1635 4.17169 10.8318C3.79669 9.91421 3.69937 8.91207 3.88983 7.93313C4.04559 7.10874 4.40775 6.33474 4.93322 5.68927C5.11594 5.46455 5.12076 5.14922 4.96594 4.92207Z" fill="white"/>
</g>
<defs>
<clipPath id="clip0_1580_53695">
<rect width="24" height="24" fill="white"/>
</clipPath>
</defs>
</svg>
