<svg width="16" height="16" viewBox="0 0 16 16" fill="none" xmlns="http://www.w3.org/2000/svg">
<g clip-path="url(#clip0_15_5107)">
<path d="M3.48893 10.3882C4.8079 10.3882 5.87714 9.31897 5.87714 8C5.87714 6.68103 4.8079 5.61179 3.48893 5.61179C2.16996 5.61179 1.10072 6.68103 1.10072 8C1.10072 9.31897 2.16996 10.3882 3.48893 10.3882Z" stroke="black" stroke-width="1.14" stroke-linecap="round" stroke-linejoin="round"/>
<path d="M12.5111 14.8993C13.83 14.8993 14.8993 13.83 14.8993 12.5111C14.8993 11.1921 13.83 10.1228 12.5111 10.1228C11.1921 10.1228 10.1229 11.1921 10.1229 12.5111C10.1229 13.83 11.1921 14.8993 12.5111 14.8993Z" stroke="black" stroke-width="1.14" stroke-linecap="round" stroke-linejoin="round"/>
<path d="M12.5111 5.87714C13.83 5.87714 14.8993 4.8079 14.8993 3.48892C14.8993 2.16995 13.83 1.10071 12.5111 1.10071C11.1921 1.10071 10.1229 2.16995 10.1229 3.48892C10.1229 4.8079 11.1921 5.87714 12.5111 5.87714Z" stroke="black" stroke-width="1.14" stroke-linecap="round" stroke-linejoin="round"/>
<path d="M5.62241 6.93857L10.3776 4.55035" stroke="black" stroke-width="1.14" stroke-linecap="round" stroke-linejoin="round"/>
<path d="M5.62241 9.06142L10.3776 11.4496" stroke="black" stroke-width="1.14" stroke-linecap="round" stroke-linejoin="round"/>
</g>
<defs>
<clipPath id="clip0_15_5107">
<rect width="16" height="16" fill="white"/>
</clipPath>
</defs>
</svg>
