<svg width="16" height="16" viewBox="0 0 16 16" fill="none" xmlns="http://www.w3.org/2000/svg">
<g clip-path="url(#clip0_1353_50734)">
<path d="M11.2374 7.99991C11.2374 8.62743 11.0518 9.24093 10.7042 9.76337C10.3566 10.2858 9.8624 10.6939 9.28363 10.9364C8.70487 11.1789 8.06735 11.245 7.45116 11.1263C6.83496 11.0077 6.26754 10.7097 5.82017 10.2696C5.3728 9.82959 5.06542 9.26719 4.93663 8.65303C4.80783 8.03888 4.86337 7.40036 5.09627 6.81766C5.32916 6.23497 5.72903 5.73407 6.24565 5.37788C6.76227 5.02169 7.37262 4.82608 8.00005 4.81563C8.42266 4.80858 8.84244 4.88575 9.23493 5.04262C9.62741 5.19948 9.98473 5.43291 10.2861 5.72931C10.5874 6.0257 10.8267 6.37912 10.99 6.76895C11.1534 7.1588 11.2375 7.57724 11.2374 7.99991Z" stroke="black" stroke-width="1.14" stroke-linecap="round" stroke-linejoin="round"/>
<path d="M11.2372 7.99999V9.37985C11.2372 13.0842 17.0433 9.59214 13.997 4.56097C13.3836 3.51339 12.5081 2.64348 11.4566 2.03678C10.4051 1.43009 9.21387 1.10749 7.99993 1.10071C6.98007 1.10386 5.97359 1.33307 5.05295 1.77185C4.1323 2.21062 3.32038 2.84805 2.67563 3.63824C2.03087 4.42844 1.56932 5.35175 1.32419 6.34171C1.07907 7.33168 1.05647 8.36368 1.25802 9.36342C1.45957 10.3632 1.88026 11.3058 2.48979 12.1234C3.09934 12.9412 3.88258 13.6135 4.78313 14.0922C5.68368 14.5708 6.67916 14.8439 7.6979 14.8916C8.71664 14.9395 9.73331 14.7608 10.6747 14.3686" stroke="black" stroke-width="1.14" stroke-linecap="round" stroke-linejoin="round"/>
</g>
<defs>
<clipPath id="clip0_1353_50734">
<rect width="16" height="16" fill="white"/>
</clipPath>
</defs>
</svg>
