<svg width="16" height="16" viewBox="0 0 16 16" fill="none" xmlns="http://www.w3.org/2000/svg">
<path d="M5.49336 14.8229C6.37112 14.8229 7.08267 14.1113 7.08267 13.2336C7.08267 12.3558 6.37112 11.6442 5.49336 11.6442C4.61561 11.6442 3.90405 12.3558 3.90405 13.2336C3.90405 14.1113 4.61561 14.8229 5.49336 14.8229Z" stroke="black" stroke-width="1.14" stroke-linecap="round" stroke-linejoin="round"/>
<path d="M12.6453 12.8361C13.523 12.8361 14.2346 12.1245 14.2346 11.2468C14.2346 10.369 13.523 9.65744 12.6453 9.65744C11.7675 9.65744 11.056 10.369 11.056 11.2468C11.056 12.1245 11.7675 12.8361 12.6453 12.8361Z" stroke="black" stroke-width="1.14" stroke-linecap="round" stroke-linejoin="round"/>
<path d="M14.2346 11.2468V5.01671C14.2343 4.95591 14.22 4.896 14.1928 4.8416C14.1657 4.7872 14.1265 4.73974 14.0781 4.7029C14.0298 4.66605 13.9735 4.64079 13.9139 4.62907C13.8542 4.61735 13.7926 4.61947 13.7339 4.63527L10.5554 5.51734" stroke="black" stroke-width="1.14" stroke-linecap="round" stroke-linejoin="round"/>
<path d="M14.2345 6.87637L8.44583 8.48434" stroke="black" stroke-width="1.14" stroke-linecap="round" stroke-linejoin="round"/>
<path d="M5.62487 3.32651C6.09703 2.68858 6.38754 1.38498 6.38754 1.38498C6.38754 1.38498 6.67806 2.68858 7.15021 3.3265C7.62617 3.96957 9.14337 4.5326 9.14337 4.5326C9.14337 4.5326 7.62617 5.09565 7.15021 5.73871C6.67805 6.37664 6.38754 7.68025 6.38754 7.68025C6.38754 7.68025 6.09703 6.37664 5.62487 5.73871C5.14892 5.09566 3.63171 4.53261 3.63171 4.53261C3.63171 4.53261 5.14892 3.96958 5.62487 3.32651Z" stroke="black" stroke-width="1.14" stroke-linecap="round" stroke-linejoin="round"/>
<path d="M7.08264 13.2336V10.0073" stroke="black" stroke-width="1.14" stroke-linecap="round" stroke-linejoin="round"/>
<path d="M2.70038 7.59988V10.0073" stroke="black" stroke-width="1.14" stroke-linecap="round" stroke-linejoin="round"/>
<path d="M1.49667 8.80359H3.90412" stroke="black" stroke-width="1.14" stroke-linecap="round" stroke-linejoin="round"/>
</svg>
