<svg width="16" height="16" viewBox="0 0 16 16" fill="none" xmlns="http://www.w3.org/2000/svg">
<g clip-path="url(#clip0_53_659)">
<path fill-rule="evenodd" clip-rule="evenodd" d="M8 0.316406C7.77322 0.316406 7.55118 0.381284 7.36008 0.503381C7.17142 0.623918 7.02069 0.795253 6.92517 0.997602L5.11081 4.66056C5.10725 4.66776 5.10383 4.67503 5.10057 4.68238C5.09976 4.6842 5.09848 4.68578 5.09687 4.68696C5.09526 4.68814 5.09337 4.68888 5.09138 4.6891C5.08442 4.68986 5.07747 4.69077 5.07055 4.69179L1.0756 5.28363C0.854795 5.30511 0.644235 5.38797 0.467875 5.52305C0.285392 5.66283 0.147356 5.85253 0.0704869 6.06915C-0.00638183 6.28578 -0.0187854 6.52006 0.0347793 6.7436C0.0881365 6.96626 0.204672 7.16877 0.370348 7.32677L3.29466 10.1483L3.30133 10.1546C3.3055 10.1585 3.30864 10.1634 3.31045 10.1688C3.31225 10.1742 3.31267 10.18 3.31167 10.1856L3.31103 10.1894L2.61418 14.2675L2.61401 14.2686C2.57573 14.4896 2.60014 14.7169 2.68449 14.9247C2.76896 15.1329 2.91017 15.3131 3.09203 15.445C3.27391 15.5768 3.48913 15.655 3.71322 15.6705C3.93687 15.6861 4.16039 15.6386 4.35845 15.5337L4.35965 15.533L7.95905 13.6307C7.97195 13.6251 7.98591 13.6222 8.00002 13.6222C8.01414 13.6222 8.02808 13.6251 8.04099 13.6307L11.6403 15.533C11.8385 15.6383 12.063 15.6862 12.2867 15.6705C12.5109 15.655 12.7261 15.5768 12.908 15.445C13.0898 15.3131 13.2311 15.1329 13.3155 14.9247C13.3999 14.7169 13.4242 14.4897 13.3861 14.2688L13.3858 14.2675L12.689 10.1894L12.6883 10.1856C12.6873 10.18 12.6878 10.1742 12.6896 10.1688C12.6913 10.1634 12.6945 10.1585 12.6986 10.1546L12.7054 10.1483L15.6297 7.32673C15.7953 7.16873 15.9119 6.96625 15.9653 6.7436C16.0187 6.52006 16.0064 6.28578 15.9295 6.06915C15.8527 5.85253 15.7146 5.66283 15.5321 5.52305C15.3558 5.38797 15.1453 5.30511 14.9245 5.28363L10.9295 4.69179C10.9225 4.69077 10.9156 4.68986 10.9086 4.6891C10.9066 4.68888 10.9047 4.68814 10.9031 4.68696C10.9015 4.68578 10.9003 4.6842 10.8994 4.68238C10.8962 4.67503 10.8928 4.66776 10.8892 4.66056L9.07483 0.997586C8.97931 0.795244 8.82858 0.623915 8.63993 0.503381C8.44882 0.381284 8.22678 0.316406 8 0.316406Z" fill="black"/>
</g>
<defs>
<clipPath id="clip0_53_659">
<rect width="16" height="16" fill="white"/>
</clipPath>
</defs>
</svg>
