<svg width="16" height="16" viewBox="0 0 16 16" fill="none" xmlns="http://www.w3.org/2000/svg">
<g clip-path="url(#clip0_15_5114)">
<path d="M8.52013 1.72701L10.2078 5.13419C10.2462 5.22068 10.3066 5.29558 10.3829 5.35146C10.4593 5.40732 10.549 5.44221 10.643 5.45262L14.3686 6.00456C14.4765 6.01843 14.5782 6.0627 14.6618 6.13221C14.7455 6.20171 14.8077 6.29359 14.841 6.39709C14.8744 6.5006 14.8776 6.61148 14.8504 6.71676C14.8232 6.82206 14.7665 6.9174 14.687 6.99169L12.0016 9.65588C11.9331 9.71991 11.8816 9.80006 11.852 9.88905C11.8223 9.97803 11.8154 10.073 11.8318 10.1654L12.4792 13.9122C12.498 14.0199 12.4861 14.1306 12.4451 14.2319C12.404 14.3331 12.3353 14.4208 12.2468 14.485C12.1584 14.5491 12.0536 14.5871 11.9446 14.5948C11.8356 14.6023 11.7266 14.5792 11.6301 14.5278L8.276 12.7552C8.19012 12.7131 8.09571 12.6912 8.00003 12.6912C7.90435 12.6912 7.80995 12.7131 7.72406 12.7552L4.36995 14.5278C4.27345 14.5792 4.1645 14.6023 4.05548 14.5948C3.94646 14.5871 3.84175 14.5491 3.75328 14.485C3.6648 14.4208 3.5961 14.3331 3.555 14.2319C3.51391 14.1306 3.50206 14.0199 3.5208 13.9122L4.16827 10.1229C4.18468 10.0306 4.17774 9.93558 4.14809 9.8466C4.11843 9.75761 4.06698 9.67746 3.99845 9.61342L1.28119 6.99169C1.2008 6.91538 1.14427 6.81737 1.11844 6.70959C1.09261 6.60179 1.09859 6.48881 1.13566 6.38434C1.17273 6.27988 1.23929 6.1884 1.32729 6.12099C1.41529 6.05359 1.52095 6.01314 1.63146 6.00456L5.35707 5.45262C5.45112 5.44221 5.54079 5.40732 5.61715 5.35146C5.6935 5.29558 5.75388 5.22068 5.79226 5.13419L7.47993 1.72701C7.52589 1.62777 7.59928 1.54376 7.69144 1.48488C7.7836 1.426 7.89067 1.39471 8.00003 1.39471C8.10939 1.39471 8.21648 1.426 8.30863 1.48488C8.40078 1.54376 8.47417 1.62777 8.52013 1.72701Z" stroke="black" stroke-width="1.14" stroke-linecap="round" stroke-linejoin="round"/>
</g>
<defs>
<clipPath id="clip0_15_5114">
<rect width="16" height="16" fill="white"/>
</clipPath>
</defs>
</svg>
