<svg width="16" height="16" viewBox="0 0 16 16" fill="none" xmlns="http://www.w3.org/2000/svg">
<g clip-path="url(#clip0_111_14117)">
<path d="M1.33319 10.5379L5.46214 14.6668C5.61141 14.8159 5.81374 14.8996 6.0247 14.8996C6.23566 14.8996 6.438 14.8159 6.58726 14.6668L14.7815 6.47259C14.8227 6.43323 14.8545 6.38516 14.8747 6.33189C14.8949 6.27864 14.9029 6.22154 14.8982 6.16477L14.272 2.0995C14.2669 2.00262 14.2261 1.91108 14.1576 1.84249C14.0889 1.77389 13.9974 1.73311 13.9005 1.728L9.83523 1.10176C9.77846 1.09705 9.72136 1.10508 9.66811 1.12529C9.61484 1.14549 9.56677 1.17734 9.52741 1.21852L1.33319 9.41274C1.18411 9.562 1.10037 9.76434 1.10037 9.9753C1.10037 10.1863 1.18411 10.3886 1.33319 10.5379Z" stroke="black" stroke-width="1.14" stroke-linecap="round" stroke-linejoin="round"/>
<path d="M11.0665 5.4642C10.7734 5.4642 10.5358 5.22659 10.5358 4.93349C10.5358 4.64038 10.7734 4.40277 11.0665 4.40277C11.3596 4.40277 11.5972 4.64038 11.5972 4.93349C11.5972 5.22659 11.3596 5.4642 11.0665 5.4642Z" stroke="black" stroke-width="1.14" stroke-linecap="round" stroke-linejoin="round"/>
</g>
<defs>
<clipPath id="clip0_111_14117">
<rect width="16" height="16" fill="white"/>
</clipPath>
</defs>
</svg>
