<svg width="16" height="16" viewBox="0 0 16 16" fill="none" xmlns="http://www.w3.org/2000/svg">
<g clip-path="url(#clip0_111_14121)">
<path fill-rule="evenodd" clip-rule="evenodd" d="M10.0229 0.0034293C9.87817 -0.00855386 9.73261 0.011673 9.59665 0.0626557C9.4607 0.113638 9.33773 0.19411 9.23659 0.298286L0.417157 9.11771C0.149516 9.38559 -0.000823975 9.74876 -0.000823975 10.1274C-0.000823975 10.5061 0.149516 10.8693 0.417157 11.1371L4.86287 15.5829C4.99553 15.7156 5.15303 15.8208 5.32638 15.8926C5.49973 15.9644 5.68552 16.0014 5.87316 16.0014C6.06079 16.0014 6.24659 15.9644 6.41993 15.8926C6.59328 15.8208 6.75078 15.7156 6.88344 15.5829L15.7017 6.76343C15.8107 6.65752 15.8936 6.52778 15.944 6.38441C15.9944 6.24104 16.0108 6.08794 15.992 5.93714L15.3212 1.58286C15.3009 1.35011 15.1992 1.13195 15.0341 0.96665C14.869 0.801346 14.651 0.699457 14.4183 0.678858L10.064 0.00800073C10.0504 0.0059805 10.0366 0.00445569 10.0229 0.0034293ZM11.4286 5.71429C11.2785 5.71429 11.1299 5.68473 10.9912 5.62729C10.8526 5.56986 10.7266 5.48568 10.6205 5.37955C10.5143 5.27343 10.4302 5.14744 10.3727 5.00878C10.3153 4.87012 10.2857 4.72151 10.2857 4.57143C10.2857 4.42135 10.3153 4.27274 10.3727 4.13408C10.4302 3.99542 10.5143 3.86943 10.6205 3.76331C10.7266 3.65718 10.8526 3.573 10.9912 3.51557C11.1299 3.45813 11.2785 3.42857 11.4286 3.42857C11.7317 3.42857 12.0224 3.54898 12.2367 3.76331C12.451 3.97763 12.5714 4.26833 12.5714 4.57143C12.5714 4.87453 12.451 5.16522 12.2367 5.37955C12.0224 5.59388 11.7317 5.71429 11.4286 5.71429Z" fill="black"/>
</g>
<defs>
<clipPath id="clip0_111_14121">
<rect width="16" height="16" fill="white"/>
</clipPath>
</defs>
</svg>
