<svg width="16" height="16" viewBox="0 0 16 16" fill="none" xmlns="http://www.w3.org/2000/svg">
<g clip-path="url(#clip0_17_4670)">
<path d="M7.99999 9.06142C9.46552 9.06142 10.6536 7.87337 10.6536 6.40784C10.6536 4.94232 9.46552 3.75427 7.99999 3.75427C6.53447 3.75427 5.34642 4.94232 5.34642 6.40784C5.34642 7.87337 6.53447 9.06142 7.99999 9.06142Z" stroke="black" stroke-width="1.14" stroke-linecap="round" stroke-linejoin="round"/>
<path d="M3.46767 13.201C3.94132 12.4235 4.60701 11.7809 5.40075 11.3351C6.19449 10.8892 7.08957 10.655 7.99997 10.655C8.91036 10.655 9.80545 10.8892 10.5992 11.3351C11.393 11.7809 12.0586 12.4235 12.5323 13.201" stroke="black" stroke-width="1.14" stroke-linecap="round" stroke-linejoin="round"/>
<path d="M7.99999 14.8993C11.8104 14.8993 14.8993 11.8104 14.8993 7.99999C14.8993 4.18962 11.8104 1.10071 7.99999 1.10071C4.18962 1.10071 1.10071 4.18962 1.10071 7.99999C1.10071 11.8104 4.18962 14.8993 7.99999 14.8993Z" stroke="black" stroke-width="1.14" stroke-linecap="round" stroke-linejoin="round"/>
</g>
<defs>
<clipPath id="clip0_17_4670">
<rect width="16" height="16" fill="white"/>
</clipPath>
</defs>
</svg>
