<svg width="16" height="16" viewBox="0 0 16 16" fill="none" xmlns="http://www.w3.org/2000/svg">
<path d="M5.91959 6.95979C7.35581 6.95979 8.52009 5.79551 8.52009 4.35929C8.52009 2.92307 7.35581 1.75879 5.91959 1.75879C4.48337 1.75879 3.31909 2.92307 3.31909 4.35929C3.31909 5.79551 4.48337 6.95979 5.91959 6.95979Z" stroke="black" stroke-width="1.14" stroke-linecap="round" stroke-linejoin="round"/>
<path d="M1.23869 14.2412H10.6005V13.6772C10.5922 12.8843 10.3831 12.1065 9.99272 11.4165C9.60233 10.7263 9.04338 10.1464 8.3682 9.73085C7.69292 9.3153 6.92328 9.07764 6.13135 9.04017C6.06066 9.03678 5.99007 9.03508 5.91959 9.03497C5.84911 9.03508 5.77853 9.03678 5.70794 9.04017C4.91591 9.07764 4.14626 9.3153 3.47109 9.73085C2.79581 10.1464 2.23686 10.7263 1.84647 11.4165C1.45607 12.1065 1.24697 12.8843 1.23869 13.6772V14.2412Z" stroke="black" stroke-width="1.14" stroke-linecap="round" stroke-linejoin="round"/>
<path d="M10.0804 6.95979C11.5166 6.95979 12.6809 5.79551 12.6809 4.35929C12.6809 2.92307 11.5166 1.75879 10.0804 1.75879" stroke="black" stroke-width="1.14" stroke-linecap="round" stroke-linejoin="round"/>
<path d="M12.6809 14.2413H14.7613V13.6773C14.753 12.8844 14.5439 12.1066 14.1535 11.4165C13.7631 10.7263 13.2042 10.1464 12.5289 9.73086C12.0924 9.46222 11.6165 9.26797 11.1206 9.15408" stroke="black" stroke-width="1.14" stroke-linecap="round" stroke-linejoin="round"/>
</svg>
