<svg width="16" height="16" viewBox="0 0 16 16" fill="none" xmlns="http://www.w3.org/2000/svg">
<g clip-path="url(#clip0_1065_26671)">
<path d="M1.10071 2.16214V13.8379C1.10071 14.4241 1.57593 14.8993 2.16214 14.8993H13.8379C14.4241 14.8993 14.8993 14.4241 14.8993 13.8379V2.16214C14.8993 1.57593 14.4241 1.10071 13.8379 1.10071H2.16214C1.57593 1.10071 1.10071 1.57593 1.10071 2.16214Z" stroke="black" stroke-width="1.14" stroke-linecap="round" stroke-linejoin="round"/>
<path d="M5.34644 12.2457V6.93857" stroke="black" stroke-width="1.14" stroke-linecap="round" stroke-linejoin="round"/>
<path d="M5.34642 6.93856C6.22573 6.93856 6.93856 6.22573 6.93856 5.34642C6.93856 4.4671 6.22573 3.75427 5.34642 3.75427C4.4671 3.75427 3.75427 4.4671 3.75427 5.34642C3.75427 6.22573 4.4671 6.93856 5.34642 6.93856Z" stroke="black" stroke-width="1.14" stroke-linecap="round" stroke-linejoin="round"/>
<path d="M10.6536 3.75427V6.93856" stroke="black" stroke-width="1.14" stroke-linecap="round" stroke-linejoin="round"/>
<path d="M10.6536 10.1229V12.2457" stroke="black" stroke-width="1.14" stroke-linecap="round" stroke-linejoin="round"/>
<path d="M10.6536 10.1229C11.5329 10.1229 12.2457 9.41003 12.2457 8.53071C12.2457 7.65139 11.5329 6.93857 10.6536 6.93857C9.77426 6.93857 9.06143 7.65139 9.06143 8.53071C9.06143 9.41003 9.77426 10.1229 10.6536 10.1229Z" stroke="black" stroke-width="1.14" stroke-linecap="round" stroke-linejoin="round"/>
</g>
<defs>
<clipPath id="clip0_1065_26671">
<rect width="16" height="16" fill="white"/>
</clipPath>
</defs>
</svg>
