<svg width="16" height="16" viewBox="0 0 16 16" fill="none" xmlns="http://www.w3.org/2000/svg">
<path d="M13.201 10.8606V12.941C13.201 13.2168 13.0913 13.4814 12.8964 13.6765C12.7014 13.8716 12.4367 13.9812 12.1608 13.9812H2.27889C2.00303 13.9812 1.73841 13.8715 1.54332 13.6765C1.34834 13.4814 1.23869 13.2168 1.23869 12.941V5.13946C1.23869 3.41602 2.63585 2.01886 4.35929 2.01886H11.1206V4.61936" stroke="black" stroke-width="1.14" stroke-linecap="round" stroke-linejoin="round"/>
<path d="M14.2412 7.73996H10.6005C10.3133 7.73996 10.0804 7.97284 10.0804 8.26006V10.3405C10.0804 10.6277 10.3133 10.8606 10.6005 10.8606H14.2412C14.5284 10.8606 14.7613 10.6277 14.7613 10.3405V8.26006C14.7613 7.97284 14.5284 7.73996 14.2412 7.73996Z" stroke="black" stroke-width="1.14" stroke-linecap="round" stroke-linejoin="round"/>
<path d="M13.201 7.73995V5.65955C13.201 5.38369 13.0914 5.11908 12.8964 4.92398C12.7013 4.729 12.4367 4.61935 12.1608 4.61935H4.3593" stroke="black" stroke-width="1.14" stroke-linecap="round" stroke-linejoin="round"/>
</svg>
