<svg width="16" height="16" viewBox="0 0 16 16" fill="none" xmlns="http://www.w3.org/2000/svg">
<g clip-path="url(#clip0_940_50833)">
<path d="M8.9447 1.68439C8.85563 1.51053 8.72029 1.36462 8.55362 1.26273C8.38694 1.16085 8.19537 1.10693 8.00003 1.10693C7.80467 1.10693 7.61311 1.16085 7.44643 1.26273C7.27975 1.36462 7.14442 1.51053 7.05536 1.68439L1.2175 13.3601C1.13607 13.5217 1.09731 13.7014 1.10488 13.8822C1.11245 14.063 1.16611 14.2388 1.26076 14.393C1.35541 14.5472 1.48791 14.6747 1.64568 14.7632C1.80344 14.8518 1.98123 14.8986 2.16217 14.8992H13.8379C14.0188 14.8986 14.1966 14.8518 14.3543 14.7632C14.5122 14.6747 14.6446 14.5472 14.7393 14.393C14.8339 14.2388 14.8876 14.063 14.8951 13.8822C14.9028 13.7014 14.8639 13.5217 14.7825 13.3601L8.9447 1.68439Z" stroke="black" stroke-width="1.14" stroke-linecap="round" stroke-linejoin="round"/>
<path d="M8 5.87714V9.32678" stroke="black" stroke-width="1.14" stroke-linecap="round" stroke-linejoin="round"/>
<path d="M8 12.2457C7.85344 12.2457 7.73464 12.1269 7.73464 11.9804C7.73464 11.8338 7.85344 11.715 8 11.715" stroke="black" stroke-width="1.14" stroke-linecap="round" stroke-linejoin="round"/>
<path d="M8 12.2457C8.14655 12.2457 8.26535 12.1269 8.26535 11.9804C8.26535 11.8338 8.14655 11.715 8 11.715" stroke="black" stroke-width="1.14" stroke-linecap="round" stroke-linejoin="round"/>
</g>
<defs>
<clipPath id="clip0_940_50833">
<rect width="16" height="16" fill="white"/>
</clipPath>
</defs>
</svg>
