<svg width="16" height="16" viewBox="0 0 16 16" fill="none" xmlns="http://www.w3.org/2000/svg">
<path d="M14.1775 4.55036L11.1843 5.87714V4.285C11.1843 4.00349 11.0724 3.73351 10.8734 3.53445C10.6743 3.3354 10.4044 3.22357 10.1229 3.22357H2.16214C1.88062 3.22357 1.61065 3.3354 1.41159 3.53445C1.21254 3.73351 1.10071 4.00349 1.10071 4.285V11.715C1.10071 11.9965 1.21254 12.2665 1.41159 12.4655C1.61065 12.6646 1.88062 12.7764 2.16214 12.7764H10.1229C10.4044 12.7764 10.6743 12.6646 10.8734 12.4655C11.0724 12.2665 11.1843 11.9965 11.1843 11.715V10.1229L14.1775 11.4496C14.2582 11.4807 14.3453 11.4918 14.4312 11.4815C14.5171 11.4713 14.5992 11.4403 14.6703 11.3911C14.7414 11.3419 14.7995 11.2761 14.8394 11.1994C14.8793 11.1226 14.8999 11.0373 14.8993 10.9508V5.04923C14.8999 4.96273 14.8793 4.87739 14.8394 4.80065C14.7995 4.72391 14.7414 4.65808 14.6703 4.60891C14.5992 4.55972 14.5171 4.52868 14.4312 4.51847C14.3453 4.50827 14.2582 4.51922 14.1775 4.55036Z" stroke="black" stroke-width="1.14" stroke-linecap="round" stroke-linejoin="round"/>
</svg>
